  0
SECTION
  2
HEADER
  9
$ACADVER
  1
AC1024
  9
$ACADMAINTVER
 70
6
  9
$DWGCODEPAGE
  3
ANSI_1254
  9
$LASTSAVEDBY
  1
ezdxf
  9
$INSBASE
 10
0.0
 20
0.0
 30
0.0
  9
$EXTMIN
 10
1e+20
 20
1e+20
 30
1e+20
  9
$EXTMAX
 10
-1e+20
 20
-1e+20
 30
-1e+20
  9
$LIMMIN
 10
0.0
 20
0.0
  9
$LIMMAX
 10
420.0
 20
297.0
  9
$ORTHOMODE
 70
0
  9
$REGENMODE
 70
1
  9
$FILLMODE
 70
1
  9
$QTEXTMODE
 70
0
  9
$MIRRTEXT
 70
1
  9
$LTSCALE
 40
0.5
  9
$ATTMODE
 70
1
  9
$TEXTSIZE
 40
2.5
  9
$TRACEWID
 40
1.0
  9
$TEXTSTYLE
  7
OpenSans
  9
$CLAYER
  8
0
  9
$CELTYPE
  6
ByLayer
  9
$CECOLOR
 62
256
  9
$CELTSCALE
 40
1.0
  9
$DISPSILH
 70
0
  9
$DIMSCALE
 40
1.0
  9
$DIMASZ
 40
0.175
  9
$DIMEXO
 40
0.125
  9
$DIMDLI
 40
3.75
  9
$DIMRND
 40
0.0
  9
$DIMDLE
 40
0.0
  9
$DIMEXE
 40
0.375
  9
$DIMTP
 40
0.0
  9
$DIMTM
 40
0.0
  9
$DIMTXT
 40
0.25
  9
$DIMCEN
 40
2.5
  9
$DIMTSZ
 40
0.0
  9
$DIMTOL
 70
0
  9
$DIMLIM
 70
0
  9
$DIMTIH
 70
0
  9
$DIMTOH
 70
0
  9
$DIMSE1
 70
0
  9
$DIMSE2
 70
0
  9
$DIMTAD
 70
1
  9
$DIMZIN
 70
12
  9
$DIMBLK
  1
ARCHTICK
  9
$DIMASO
 70
1
  9
$DIMSHO
 70
1
  9
$DIMPOST
  1

  9
$DIMAPOST
  1

  9
$DIMALT
 70
0
  9
$DIMALTD
 70
3
  9
$DIMALTF
 40
0.03937007874
  9
$DIMLFAC
 40
100.0
  9
$DIMTOFL
 70
1
  9
$DIMTVP
 40
0.0
  9
$DIMTIX
 70
0
  9
$DIMSOXD
 70
0
  9
$DIMSAH
 70
0
  9
$DIMBLK1
  1

  9
$DIMBLK2
  1

  9
$DIMSTYLE
  2
EZDXF
  9
$DIMCLRD
 70
0
  9
$DIMCLRE
 70
0
  9
$DIMCLRT
 70
0
  9
$DIMTFAC
 40
0.5
  9
$DIMGAP
 40
0.1
  9
$DIMJUST
 70
0
  9
$DIMSD1
 70
0
  9
$DIMSD2
 70
0
  9
$DIMTOLJ
 70
0
  9
$DIMTZIN
 70
8
  9
$DIMALTZ
 70
0
  9
$DIMALTTZ
 70
0
  9
$DIMUPT
 70
1
  9
$DIMDEC
 70
2
  9
$DIMTDEC
 70
2
  9
$DIMALTU
 70
2
  9
$DIMALTTD
 70
3
  9
$DIMTXSTY
  7
OpenSansCondensed-Light
  9
$DIMAUNIT
 70
0
  9
$DIMADEC
 70
2
  9
$DIMALTRND
 40
0.0
  9
$DIMAZIN
 70
3
  9
$DIMDSEP
 70
46
  9
$DIMATFIT
 70
3
  9
$DIMFRAC
 70
0
  9
$DIMLDRBLK
  1

  9
$DIMLUNIT
 70
2
  9
$DIMLWD
 70
-2
  9
$DIMLWE
 70
-2
  9
$DIMTMOVE
 70
2
  9
$DIMFXL
 40
1.0
  9
$DIMFXLON
 70
0
  9
$DIMJOGANG
 40
0.785398163397
  9
$DIMTFILL
 70
0
  9
$DIMTFILLCLR
 70
0
  9
$DIMARCSYM
 70
0
  9
$DIMLTYPE
  6

  9
$DIMLTEX1
  6

  9
$DIMLTEX2
  6

  9
$DIMTXTDIRECTION
 70
0
  9
$LUNITS
 70
2
  9
$LUPREC
 70
4
  9
$SKETCHINC
 40
1.0
  9
$FILLETRAD
 40
10.0
  9
$AUNITS
 70
0
  9
$AUPREC
 70
2
  9
$MENU
  1
.
  9
$ELEVATION
 40
0.0
  9
$PELEVATION
 40
0.0
  9
$THICKNESS
 40
0.0
  9
$LIMCHECK
 70
0
  9
$CHAMFERA
 40
0.0
  9
$CHAMFERB
 40
0.0
  9
$CHAMFERC
 40
0.0
  9
$CHAMFERD
 40
0.0
  9
$SKPOLY
 70
0
  9
$TDCREATE
 40
2461321.304513889
  9
$TDUCREATE
 40
2458532.153996898
  9
$TDUPDATE
 40
2461321.304513889
  9
$TDUUPDATE
 40
2458532.1544311
  9
$TDINDWG
 40
0.0
  9
$TDUSRTIMER
 40
0.0
  9
$USRTIMER
 70
1
  9
$ANGBASE
 50
0.0
  9
$ANGDIR
 70
0
  9
$PDMODE
 70
0
  9
$PDSIZE
 40
0.0
  9
$PLINEWID
 40
0.0
  9
$SPLFRAME
 70
0
  9
$SPLINETYPE
 70
6
  9
$SPLINESEGS
 70
8
  9
$HANDSEED
  5
19E
  9
$SURFTAB1
 70
6
  9
$SURFTAB2
 70
6
  9
$SURFTYPE
 70
6
  9
$SURFU
 70
6
  9
$SURFV
 70
6
  9
$UCSBASE
  2

  9
$UCSNAME
  2

  9
$UCSORG
 10
0.0
 20
0.0
 30
0.0
  9
$UCSXDIR
 10
1.0
 20
0.0
 30
0.0
  9
$UCSYDIR
 10
0.0
 20
1.0
 30
0.0
  9
$UCSORTHOREF
  2

  9
$UCSORTHOVIEW
 70
0
  9
$UCSORGTOP
 10
0.0
 20
0.0
 30
0.0
  9
$UCSORGBOTTOM
 10
0.0
 20
0.0
 30
0.0
  9
$UCSORGLEFT
 10
0.0
 20
0.0
 30
0.0
  9
$UCSORGRIGHT
 10
0.0
 20
0.0
 30
0.0
  9
$UCSORGFRONT
 10
0.0
 20
0.0
 30
0.0
  9
$UCSORGBACK
 10
0.0
 20
0.0
 30
0.0
  9
$PUCSBASE
  2

  9
$PUCSNAME
  2

  9
$PUCSORG
 10
0.0
 20
0.0
 30
0.0
  9
$PUCSXDIR
 10
1.0
 20
0.0
 30
0.0
  9
$PUCSYDIR
 10
0.0
 20
1.0
 30
0.0
  9
$PUCSORTHOREF
  2

  9
$PUCSORTHOVIEW
 70
0
  9
$PUCSORGTOP
 10
0.0
 20
0.0
 30
0.0
  9
$PUCSORGBOTTOM
 10
0.0
 20
0.0
 30
0.0
  9
$PUCSORGLEFT
 10
0.0
 20
0.0
 30
0.0
  9
$PUCSORGRIGHT
 10
0.0
 20
0.0
 30
0.0
  9
$PUCSORGFRONT
 10
0.0
 20
0.0
 30
0.0
  9
$PUCSORGBACK
 10
0.0
 20
0.0
 30
0.0
  9
$USERI1
 70
0
  9
$USERI2
 70
0
  9
$USERI3
 70
0
  9
$USERI4
 70
0
  9
$USERI5
 70
0
  9
$USERR1
 40
0.0
  9
$USERR2
 40
0.0
  9
$USERR3
 40
0.0
  9
$USERR4
 40
0.0
  9
$USERR5
 40
0.0
  9
$WORLDVIEW
 70
1
  9
$SHADEDGE
 70
3
  9
$SHADEDIF
 70
70
  9
$TILEMODE
 70
1
  9
$MAXACTVP
 70
64
  9
$PINSBASE
 10
0.0
 20
0.0
 30
0.0
  9
$PLIMCHECK
 70
0
  9
$PEXTMIN
 10
1e+20
 20
1e+20
 30
1e+20
  9
$PEXTMAX
 10
-1e+20
 20
-1e+20
 30
-1e+20
  9
$PLIMMIN
 10
0.0
 20
0.0
  9
$PLIMMAX
 10
420.0
 20
297.0
  9
$UNITMODE
 70
0
  9
$VISRETAIN
 70
1
  9
$PLINEGEN
 70
0
  9
$PSLTSCALE
 70
1
  9
$TREEDEPTH
 70
3020
  9
$CMLSTYLE
  2
Standard
  9
$CMLJUST
 70
0
  9
$CMLSCALE
 40
20.0
  9
$PROXYGRAPHICS
 70
1
  9
$MEASUREMENT
 70
1
  9
$CELWEIGHT
370
-1
  9
$ENDCAPS
280
0
  9
$JOINSTYLE
280
0
  9
$LWDISPLAY
290
0
  9
$INSUNITS
 70
6
  9
$HYPERLINKBASE
  1

  9
$STYLESHEET
  1

  9
$XEDIT
290
1
  9
$CEPSNTYPE
380
0
  9
$PSTYLEMODE
290
1
  9
$FINGERPRINTGUID
  2
{FA36C568-F3AA-43D5-8F36-406423C6945F}
  9
$VERSIONGUID
  2
{C282AF6F-1502-4C4A-B31E-CA0AE815C7D5}
  9
$EXTNAMES
290
1
  9
$PSVPSCALE
 40
0.0
  9
$OLESTARTUP
290
0
  9
$SORTENTS
280
127
  9
$INDEXCTL
280
0
  9
$HIDETEXT
280
1
  9
$XCLIPFRAME
280
1
  9
$HALOGAP
280
0
  9
$OBSCOLOR
 70
257
  9
$OBSLTYPE
280
0
  9
$INTERSECTIONDISPLAY
280
0
  9
$INTERSECTIONCOLOR
 70
257
  9
$DIMASSOC
280
2
  9
$PROJECTNAME
  1

  9
$CAMERADISPLAY
290
0
  9
$LENSLENGTH
 40
50.0
  9
$CAMERAHEIGHT
 40
0.0
  9
$STEPSPERSEC
 40
24.0
  9
$STEPSIZE
 40
100.0
  9
$3DDWFPREC
 40
2.0
  9
$PSOLWIDTH
 40
0.005
  9
$PSOLHEIGHT
 40
0.08
  9
$LOFTANG1
 40
1.570796326795
  9
$LOFTANG2
 40
1.570796326795
  9
$LOFTMAG1
 40
0.0
  9
$LOFTMAG2
 40
0.0
  9
$LOFTPARAM
 70
7
  9
$LOFTNORMALS
280
1
  9
$LATITUDE
 40
37.795
  9
$LONGITUDE
 40
-122.394
  9
$NORTHDIRECTION
 40
0.0
  9
$TIMEZONE
 70
-8000
  9
$LIGHTGLYPHDISPLAY
280
1
  9
$TILEMODELIGHTSYNCH
280
1
  9
$CMATERIAL
347
20
  9
$SOLIDHIST
280
0
  9
$SHOWHIST
280
1
  9
$DWFFRAME
280
2
  9
$DGNFRAME
280
2
  9
$REALWORLDSCALE
290
1
  9
$INTERFERECOLOR
 62
256
  9
$CSHADOW
280
0
  9
$SHADOWPLANELOCATION
 40
0.0
  0
ENDSEC
  0
SECTION
  2
CLASSES
  0
CLASS
  1
ACDBDICTIONARYWDFLT
  2
AcDbDictionaryWithDefault
  3
ObjectDBX Classes
 90
0
 91
0
280
0
281
0
  0
CLASS
  1
SUN
  2
AcDbSun
  3
SCENEOE
 90
1153
 91
0
280
0
281
0
  0
CLASS
  1
VISUALSTYLE
  2
AcDbVisualStyle
  3
ObjectDBX Classes
 90
4095
 91
0
280
0
281
0
  0
CLASS
  1
MATERIAL
  2
AcDbMaterial
  3
ObjectDBX Classes
 90
1153
 91
0
280
0
281
0
  0
CLASS
  1
SCALE
  2
AcDbScale
  3
ObjectDBX Classes
 90
1153
 91
0
280
0
281
0
  0
CLASS
  1
TABLESTYLE
  2
AcDbTableStyle
  3
ObjectDBX Classes
 90
4095
 91
0
280
0
281
0
  0
CLASS
  1
MLEADERSTYLE
  2
AcDbMLeaderStyle
  3
ACDB_MLEADERSTYLE_CLASS
 90
4095
 91
0
280
0
281
0
  0
CLASS
  1
DICTIONARYVAR
  2
AcDbDictionaryVar
  3
ObjectDBX Classes
 90
0
 91
0
280
0
281
0
  0
CLASS
  1
CELLSTYLEMAP
  2
AcDbCellStyleMap
  3
ObjectDBX Classes
 90
1152
 91
0
280
0
281
0
  0
CLASS
  1
MENTALRAYRENDERSETTINGS
  2
AcDbMentalRayRenderSettings
  3
SCENEOE
 90
1024
 91
0
280
0
281
0
  0
CLASS
  1
ACDBDETAILVIEWSTYLE
  2
AcDbDetailViewStyle
  3
ObjectDBX Classes
 90
1025
 91
0
280
0
281
0
  0
CLASS
  1
ACDBSECTIONVIEWSTYLE
  2
AcDbSectionViewStyle
  3
ObjectDBX Classes
 90
1025
 91
0
280
0
281
0
  0
CLASS
  1
RASTERVARIABLES
  2
AcDbRasterVariables
  3
ISM
 90
0
 91
0
280
0
281
0
  0
CLASS
  1
ACDBPLACEHOLDER
  2
AcDbPlaceHolder
  3
ObjectDBX Classes
 90
0
 91
0
280
0
281
0
  0
CLASS
  1
LAYOUT
  2
AcDbLayout
  3
ObjectDBX Classes
 90
0
 91
0
280
0
281
0
  0
ENDSEC
  0
SECTION
  2
TABLES
  0
TABLE
  2
VPORT
  5
8
330
0
100
AcDbSymbolTable
 70
1
  0
VPORT
  5
23
330
8
100
AcDbSymbolTableRecord
100
AcDbViewportTableRecord
  2
*Active
 70
0
 10
0.0
 20
0.0
 11
1.0
 21
1.0
 12
0.0
 22
0.0
 13
0.0
 23
0.0
 14
0.5
 24
0.5
 15
0.5
 25
0.5
 16
0.0
 26
0.0
 36
1.0
 17
0.0
 27
0.0
 37
0.0
 40
1000.0
 41
1.34
 42
50.0
 43
0.0
 44
0.0
 50
0.0
 51
0.0
 71
0
 72
1000
 73
1
 74
3
 75
0
 76
0
 77
0
 78
0
281
0
 65
0
146
0.0
  0
ENDTAB
  0
TABLE
  2
LTYPE
  5
2
330
0
100
AcDbSymbolTable
 70
21
  0
LTYPE
  5
24
330
2
100
AcDbSymbolTableRecord
100
AcDbLinetypeTableRecord
  2
ByBlock
 70
0
  3

 72
65
 73
0
 40
0.0
  0
LTYPE
  5
25
330
2
100
AcDbSymbolTableRecord
100
AcDbLinetypeTableRecord
  2
ByLayer
 70
0
  3

 72
65
 73
0
 40
0.0
  0
LTYPE
  5
26
330
2
100
AcDbSymbolTableRecord
100
AcDbLinetypeTableRecord
  2
Continuous
 70
0
  3

 72
65
 73
0
 40
0.0
  0
LTYPE
  5
2F
330
2
100
AcDbSymbolTableRecord
100
AcDbLinetypeTableRecord
  2
CENTER
 70
0
  3
Center ____ _ ____ _ ____ _ ____ _ ____ _ ____
 72
65
 73
4
 40
5.08
 49
3.175
 74
0
 49
-0.635
 74
0
 49
0.635
 74
0
 49
-0.635
 74
0
  0
LTYPE
  5
30
330
2
100
AcDbSymbolTableRecord
100
AcDbLinetypeTableRecord
  2
CENTERX2
 70
0
  3
Center (2x) ________  __  ________  __  ________
 72
65
 73
4
 40
8.89
 49
6.35
 74
0
 49
-0.635
 74
0
 49
1.27
 74
0
 49
-0.635
 74
0
  0
LTYPE
  5
31
330
2
100
AcDbSymbolTableRecord
100
AcDbLinetypeTableRecord
  2
CENTER2
 70
0
  3
Center (.5x) ____ _ ____ _ ____ _ ____ _ ____
 72
65
 73
4
 40
2.54
 49
1.587
 74
0
 49
-0.318
 74
0
 49
0.318
 74
0
 49
-0.318
 74
0
  0
LTYPE
  5
32
330
2
100
AcDbSymbolTableRecord
100
AcDbLinetypeTableRecord
  2
DASHED
 70
0
  3
Dashed __ __ __ __ __ __ __ __ __ __ __ __ __ _
 72
65
 73
2
 40
1.524
 49
1.27
 74
0
 49
-0.254
 74
0
  0
LTYPE
  5
33
330
2
100
AcDbSymbolTableRecord
100
AcDbLinetypeTableRecord
  2
DASHEDX2
 70
0
  3
Dashed (2x) ____  ____  ____  ____  ____  ____
 72
65
 73
2
 40
3.048
 49
2.54
 74
0
 49
-0.508
 74
0
  0
LTYPE
  5
34
330
2
100
AcDbSymbolTableRecord
100
AcDbLinetypeTableRecord
  2
DASHED2
 70
0
  3
Dashed (.5x) _ _ _ _ _ _ _ _ _ _ _ _ _ _
 72
65
 73
2
 40
0.762
 49
0.635
 74
0
 49
-0.127
 74
0
  0
LTYPE
  5
35
330
2
100
AcDbSymbolTableRecord
100
AcDbLinetypeTableRecord
  2
PHANTOM
 70
0
  3
Phantom ______  __  __  ______  __  __  ______
 72
65
 73
6
 40
6.35
 49
3.175
 74
0
 49
-0.635
 74
0
 49
0.635
 74
0
 49
-0.635
 74
0
 49
0.635
 74
0
 49
-0.635
 74
0
  0
LTYPE
  5
36
330
2
100
AcDbSymbolTableRecord
100
AcDbLinetypeTableRecord
  2
PHANTOMX2
 70
0
  3
Phantom (2x)____________    ____    ____    ____________
 72
65
 73
6
 40
10.795
 49
6.35
 74
0
 49
-0.635
 74
0
 49
1.27
 74
0
 49
-0.635
 74
0
 49
1.27
 74
0
 49
-0.635
 74
0
  0
LTYPE
  5
37
330
2
100
AcDbSymbolTableRecord
100
AcDbLinetypeTableRecord
  2
PHANTOM2
 70
0
  3
Phantom (.5x) ___ _ _ ___ _ _ ___ _ _ ___ _ _ ___
 72
65
 73
6
 40
3.175
 49
1.587
 74
0
 49
-0.318
 74
0
 49
0.318
 74
0
 49
-0.318
 74
0
 49
0.318
 74
0
 49
-0.318
 74
0
  0
LTYPE
  5
38
330
2
100
AcDbSymbolTableRecord
100
AcDbLinetypeTableRecord
  2
DASHDOT
 70
0
  3
Dash dot __ . __ . __ . __ . __ . __ . __ . __
 72
65
 73
4
 40
3.556
 49
2.54
 74
0
 49
-0.508
 74
0
 49
0.0
 74
0
 49
-0.508
 74
0
  0
LTYPE
  5
39
330
2
100
AcDbSymbolTableRecord
100
AcDbLinetypeTableRecord
  2
DASHDOTX2
 70
0
  3
Dash dot (2x) ____  .  ____  .  ____  .  ____
 72
65
 73
4
 40
6.096
 49
5.08
 74
0
 49
-0.508
 74
0
 49
0.0
 74
0
 49
-0.508
 74
0
  0
LTYPE
  5
3A
330
2
100
AcDbSymbolTableRecord
100
AcDbLinetypeTableRecord
  2
DASHDOT2
 70
0
  3
Dash dot (.5x) _ . _ . _ . _ . _ . _ . _ . _
 72
65
 73
4
 40
1.778
 49
1.27
 74
0
 49
-0.254
 74
0
 49
0.0
 74
0
 49
-0.254
 74
0
  0
LTYPE
  5
3B
330
2
100
AcDbSymbolTableRecord
100
AcDbLinetypeTableRecord
  2
DOT
 70
0
  3
Dot .  .  .  .  .  .  .  .  .  .  .  .  .  .  .  .
 72
65
 73
2
 40
0.508
 49
0.0
 74
0
 49
-0.508
 74
0
  0
LTYPE
  5
3C
330
2
100
AcDbSymbolTableRecord
100
AcDbLinetypeTableRecord
  2
DOTX2
 70
0
  3
Dot (2x) .    .    .    .    .    .    .    . 
 72
65
 73
2
 40
1.016
 49
0.0
 74
0
 49
-1.016
 74
0
  0
LTYPE
  5
3D
330
2
100
AcDbSymbolTableRecord
100
AcDbLinetypeTableRecord
  2
DOT2
 70
0
  3
Dot (.5) . . . . . . . . . . . . . . . . . . . 
 72
65
 73
2
 40
0.254
 49
0.0
 74
0
 49
-0.254
 74
0
  0
LTYPE
  5
3E
330
2
100
AcDbSymbolTableRecord
100
AcDbLinetypeTableRecord
  2
DIVIDE
 70
0
  3
Divide __ . . __ . . __ . . __ . . __ . . __
 72
65
 73
6
 40
4.064
 49
2.54
 74
0
 49
-0.508
 74
0
 49
0.0
 74
0
 49
-0.508
 74
0
 49
0.0
 74
0
 49
-0.508
 74
0
  0
LTYPE
  5
3F
330
2
100
AcDbSymbolTableRecord
100
AcDbLinetypeTableRecord
  2
DIVIDEX2
 70
0
  3
Divide (2x) ____  . .  ____  . .  ____  . .  ____
 72
65
 73
6
 40
6.604
 49
5.08
 74
0
 49
-0.508
 74
0
 49
0.0
 74
0
 49
-0.508
 74
0
 49
0.0
 74
0
 49
-0.508
 74
0
  0
LTYPE
  5
40
330
2
100
AcDbSymbolTableRecord
100
AcDbLinetypeTableRecord
  2
DIVIDE2
 70
0
  3
Divide(.5x) _ . _ . _ . _ . _ . _ . _ . _
 72
65
 73
6
 40
2.032
 49
1.27
 74
0
 49
-0.254
 74
0
 49
0.0
 74
0
 49
-0.254
 74
0
 49
0.0
 74
0
 49
-0.254
 74
0
  0
ENDTAB
  0
TABLE
  2
LAYER
  5
1
330
0
100
AcDbSymbolTable
 70
17
  0
LAYER
  5
27
330
1
100
AcDbSymbolTableRecord
100
AcDbLayerTableRecord
  2
0
 70
0
 62
7
  6
Continuous
370
-3
390
13
347
21
  0
LAYER
  5
28
330
1
100
AcDbSymbolTableRecord
100
AcDbLayerTableRecord
  2
Defpoints
 70
0
 62
7
  6
Continuous
290
0
370
-3
390
13
347
21
  0
LAYER
  5
8B
330
1
100
AcDbSymbolTableRecord
100
AcDbLayerTableRecord
  2
SINIR-YOL
 70
0
 62
8
  6
DASHED
370
-3
390
13
347
21
  0
LAYER
  5
8C
330
1
100
AcDbSymbolTableRecord
100
AcDbLayerTableRecord
  2
BINA
 70
0
 62
7
  6
Continuous
370
-3
390
13
347
21
  0
LAYER
  5
8D
330
1
100
AcDbSymbolTableRecord
100
AcDbLayerTableRecord
  2
KANOPI
 70
0
 62
4
  6
DASHED
370
-3
390
13
347
21
  0
LAYER
  5
8E
330
1
100
AcDbSymbolTableRecord
100
AcDbLayerTableRecord
  2
POMPA-ADASI
 70
0
 62
3
  6
Continuous
370
-3
390
13
347
21
  0
LAYER
  5
8F
330
1
100
AcDbSymbolTableRecord
100
AcDbLayerTableRecord
  2
LPG-SAHA
 70
0
 62
1
  6
Continuous
370
-3
390
13
347
21
  0
LAYER
  5
90
330
1
100
AcDbSymbolTableRecord
100
AcDbLayerTableRecord
  2
LPG-TANK
 70
0
 62
1
  6
DASHED2
370
-3
390
13
347
21
  0
LAYER
  5
91
330
1
100
AcDbSymbolTableRecord
100
AcDbLayerTableRecord
  2
LPG-HAT
 70
0
 62
6
  6
Continuous
370
-3
390
13
347
21
  0
LAYER
  5
92
330
1
100
AcDbSymbolTableRecord
100
AcDbLayerTableRecord
  2
KK-ANOT
 70
0
 62
30
  6
Continuous
370
-3
390
13
347
21
  0
LAYER
  5
93
330
1
100
AcDbSymbolTableRecord
100
AcDbLayerTableRecord
  2
KK-KABLO
 70
0
 62
5
  6
DASHED2
370
-3
390
13
347
21
  0
LAYER
  5
94
330
1
100
AcDbSymbolTableRecord
100
AcDbLayerTableRecord
  2
KK-OLCUM
 70
0
 62
2
  6
Continuous
370
-3
390
13
347
21
  0
LAYER
  5
95
330
1
100
AcDbSymbolTableRecord
100
AcDbLayerTableRecord
  2
KK-IZOLASYON
 70
0
 62
140
  6
Continuous
370
-3
390
13
347
21
  0
LAYER
  5
96
330
1
100
AcDbSymbolTableRecord
100
AcDbLayerTableRecord
  2
OLCU
 70
0
 62
9
  6
Continuous
370
-3
390
13
347
21
  0
LAYER
  5
97
330
1
100
AcDbSymbolTableRecord
100
AcDbLayerTableRecord
  2
YAZI
 70
0
 62
7
  6
Continuous
370
-3
390
13
347
21
  0
LAYER
  5
98
330
1
100
AcDbSymbolTableRecord
100
AcDbLayerTableRecord
  2
PAFTA
 70
0
 62
7
  6
Continuous
370
-3
390
13
347
21
  0
LAYER
  5
99
330
1
100
AcDbSymbolTableRecord
100
AcDbLayerTableRecord
  2
TEYIT
 70
0
 62
11
  6
Continuous
370
-3
390
13
347
21
  0
ENDTAB
  0
TABLE
  2
STYLE
  5
5
330
0
100
AcDbSymbolTable
 70
27
  0
STYLE
  5
29
330
5
100
AcDbSymbolTableRecord
100
AcDbTextStyleTableRecord
  2
Standard
 70
0
 40
0.0
 41
1.0
 50
0.0
 71
0
 42
2.5
  3
txt
  4

  0
STYLE
  5
41
330
5
100
AcDbSymbolTableRecord
100
AcDbTextStyleTableRecord
  2
OpenSans-Light
 70
0
 40
0.0
 41
1.0
 50
0.0
 71
0
 42
2.5
  3
OpenSans-Light.ttf
  4

  0
STYLE
  5
42
330
5
100
AcDbSymbolTableRecord
100
AcDbTextStyleTableRecord
  2
OpenSans-Light-Italic
 70
0
 40
0.0
 41
1.0
 50
0.0
 71
0
 42
2.5
  3
OpenSans-LightItalic.ttf
  4

  0
STYLE
  5
43
330
5
100
AcDbSymbolTableRecord
100
AcDbTextStyleTableRecord
  2
OpenSans
 70
0
 40
0.0
 41
1.0
 50
0.0
 71
0
 42
2.5
  3
OpenSans-Regular.ttf
  4

  0
STYLE
  5
44
330
5
100
AcDbSymbolTableRecord
100
AcDbTextStyleTableRecord
  2
OpenSans-Italic
 70
0
 40
0.0
 41
1.0
 50
0.0
 71
0
 42
2.5
  3
OpenSans-Italic.ttf
  4

  0
STYLE
  5
45
330
5
100
AcDbSymbolTableRecord
100
AcDbTextStyleTableRecord
  2
OpenSans-SemiBold
 70
0
 40
0.0
 41
1.0
 50
0.0
 71
0
 42
2.5
  3
OpenSans-SemiBold.ttf
  4

  0
STYLE
  5
46
330
5
100
AcDbSymbolTableRecord
100
AcDbTextStyleTableRecord
  2
OpenSans-SemiBoldItalic
 70
0
 40
0.0
 41
1.0
 50
0.0
 71
0
 42
2.5
  3
OpenSans-SemiBoldItalic.ttf
  4

  0
STYLE
  5
47
330
5
100
AcDbSymbolTableRecord
100
AcDbTextStyleTableRecord
  2
OpenSans-Bold
 70
0
 40
0.0
 41
1.0
 50
0.0
 71
0
 42
2.5
  3
OpenSans-Bold.ttf
  4

  0
STYLE
  5
48
330
5
100
AcDbSymbolTableRecord
100
AcDbTextStyleTableRecord
  2
OpenSans-BoldItalic
 70
0
 40
0.0
 41
1.0
 50
0.0
 71
0
 42
2.5
  3
OpenSans-BoldItalic.ttf
  4

  0
STYLE
  5
49
330
5
100
AcDbSymbolTableRecord
100
AcDbTextStyleTableRecord
  2
OpenSans-ExtraBold
 70
0
 40
0.0
 41
1.0
 50
0.0
 71
0
 42
2.5
  3
OpenSans-ExtraBold.ttf
  4

  0
STYLE
  5
4A
330
5
100
AcDbSymbolTableRecord
100
AcDbTextStyleTableRecord
  2
OpenSans-ExtraBoldItalic
 70
0
 40
0.0
 41
1.0
 50
0.0
 71
0
 42
2.5
  3
OpenSans-ExtraBoldItalic.ttf
  4

  0
STYLE
  5
4B
330
5
100
AcDbSymbolTableRecord
100
AcDbTextStyleTableRecord
  2
OpenSansCondensed-Bold
 70
0
 40
0.0
 41
1.0
 50
0.0
 71
0
 42
2.5
  3
OpenSansCondensed-Bold.ttf
  4

  0
STYLE
  5
4C
330
5
100
AcDbSymbolTableRecord
100
AcDbTextStyleTableRecord
  2
OpenSansCondensed-Light
 70
0
 40
0.0
 41
1.0
 50
0.0
 71
0
 42
2.5
  3
OpenSansCondensed-Light.ttf
  4

  0
STYLE
  5
4D
330
5
100
AcDbSymbolTableRecord
100
AcDbTextStyleTableRecord
  2
OpenSansCondensed-Italic
 70
0
 40
0.0
 41
1.0
 50
0.0
 71
0
 42
2.5
  3
OpenSansCondensed-LightItalic.ttf
  4

  0
STYLE
  5
4E
330
5
100
AcDbSymbolTableRecord
100
AcDbTextStyleTableRecord
  2
LiberationSans
 70
0
 40
0.0
 41
1.0
 50
0.0
 71
0
 42
2.5
  3
LiberationSans-Regular.ttf
  4

  0
STYLE
  5
4F
330
5
100
AcDbSymbolTableRecord
100
AcDbTextStyleTableRecord
  2
LiberationSans-Bold
 70
0
 40
0.0
 41
1.0
 50
0.0
 71
0
 42
2.5
  3
LiberationSans-Bold.ttf
  4

  0
STYLE
  5
50
330
5
100
AcDbSymbolTableRecord
100
AcDbTextStyleTableRecord
  2
LiberationSans-BoldItalic
 70
0
 40
0.0
 41
1.0
 50
0.0
 71
0
 42
2.5
  3
LiberationSans-BoldItalic.ttf
  4

  0
STYLE
  5
51
330
5
100
AcDbSymbolTableRecord
100
AcDbTextStyleTableRecord
  2
LiberationSans-Italic
 70
0
 40
0.0
 41
1.0
 50
0.0
 71
0
 42
2.5
  3
LiberationSans-Italic.ttf
  4

  0
STYLE
  5
52
330
5
100
AcDbSymbolTableRecord
100
AcDbTextStyleTableRecord
  2
LiberationSerif
 70
0
 40
0.0
 41
1.0
 50
0.0
 71
0
 42
2.5
  3
LiberationSerif-Regular.ttf
  4

  0
STYLE
  5
53
330
5
100
AcDbSymbolTableRecord
100
AcDbTextStyleTableRecord
  2
LiberationSerif-Bold
 70
0
 40
0.0
 41
1.0
 50
0.0
 71
0
 42
2.5
  3
LiberationSerif-Bold.ttf
  4

  0
STYLE
  5
54
330
5
100
AcDbSymbolTableRecord
100
AcDbTextStyleTableRecord
  2
LiberationSerif-BoldItalic
 70
0
 40
0.0
 41
1.0
 50
0.0
 71
0
 42
2.5
  3
LiberationSerif-BoldItalic.ttf
  4

  0
STYLE
  5
55
330
5
100
AcDbSymbolTableRecord
100
AcDbTextStyleTableRecord
  2
LiberationSerif-Italic
 70
0
 40
0.0
 41
1.0
 50
0.0
 71
0
 42
2.5
  3
LiberationSerif-Italic.ttf
  4

  0
STYLE
  5
56
330
5
100
AcDbSymbolTableRecord
100
AcDbTextStyleTableRecord
  2
LiberationMono
 70
0
 40
0.0
 41
1.0
 50
0.0
 71
0
 42
2.5
  3
LiberationMono-Regular.ttf
  4

  0
STYLE
  5
57
330
5
100
AcDbSymbolTableRecord
100
AcDbTextStyleTableRecord
  2
LiberationMono-Bold
 70
0
 40
0.0
 41
1.0
 50
0.0
 71
0
 42
2.5
  3
LiberationMono-Bold.ttf
  4

  0
STYLE
  5
58
330
5
100
AcDbSymbolTableRecord
100
AcDbTextStyleTableRecord
  2
LiberationMono-BoldItalic
 70
0
 40
0.0
 41
1.0
 50
0.0
 71
0
 42
2.5
  3
LiberationMono-BoldItalic.ttf
  4

  0
STYLE
  5
59
330
5
100
AcDbSymbolTableRecord
100
AcDbTextStyleTableRecord
  2
LiberationMono-Italic
 70
0
 40
0.0
 41
1.0
 50
0.0
 71
0
 42
2.5
  3
LiberationMono-Italic.ttf
  4

  0
STYLE
  5
8A
330
5
100
AcDbSymbolTableRecord
100
AcDbTextStyleTableRecord
  2
TR
 70
0
 40
0.0
 41
1.0
 50
0.0
 71
0
 42
2.5
  3
arial.ttf
  4

  0
ENDTAB
  0
TABLE
  2
VIEW
  5
7
330
0
100
AcDbSymbolTable
 70
0
  0
ENDTAB
  0
TABLE
  2
UCS
  5
6
330
0
100
AcDbSymbolTable
 70
0
  0
ENDTAB
  0
TABLE
  2
APPID
  5
3
330
0
100
AcDbSymbolTable
 70
3
  0
APPID
  5
2A
330
3
100
AcDbSymbolTableRecord
100
AcDbRegAppTableRecord
  2
ACAD
 70
0
  0
APPID
  5
19B
330
3
100
AcDbSymbolTableRecord
100
AcDbRegAppTableRecord
  2
HATCHBACKGROUNDCOLOR
 70
0
  0
APPID
  5
19C
330
3
100
AcDbSymbolTableRecord
100
AcDbRegAppTableRecord
  2
EZDXF
 70
0
  0
ENDTAB
  0
TABLE
  2
DIMSTYLE
  5
4
330
0
100
AcDbSymbolTable
 70
12
100
AcDbDimStyleTable
  0
DIMSTYLE
105
2B
330
4
100
AcDbSymbolTableRecord
100
AcDbDimStyleTableRecord
  2
Standard
 70
0
 40
1.0
 41
2.5
 42
0.625
 43
3.75
 44
1.25
 45
0.0
 46
0.0
 47
0.0
 48
0.0
 49
2.5
140
2.5
141
2.5
142
0.0
143
0.03937007874
144
1.0
145
0.0
146
1.0
147
0.625
148
0.0
 69
0
 70
0
 71
0
 72
0
 73
0
 74
0
 75
0
 76
0
 77
1
 78
8
 79
3
170
0
171
3
172
1
173
0
174
0
175
0
176
0
177
0
178
0
179
2
271
2
272
2
273
2
274
3
275
0
276
0
277
2
278
44
279
0
280
0
281
0
282
0
283
0
284
8
285
0
286
0
288
0
289
3
290
0
371
-2
372
-2
  0
DIMSTYLE
105
73
330
4
100
AcDbSymbolTableRecord
100
AcDbDimStyleTableRecord
  2
EZDXF
 70
0
 40
1.0
 41
0.175
 42
0.125
 43
3.75
 44
0.375
 45
0.0
 46
0.0
 47
0.0
 48
0.0
 49
2.5
140
0.25
141
2.5
142
0.0
143
0.03937007874
144
100.0
145
0.0
146
0.5
147
0.1
148
0.0
 69
0
 70
0
 71
0
 72
0
 73
0
 74
0
 75
0
 76
0
 77
1
 78
12
 79
3
170
0
171
3
172
1
173
0
174
0
175
0
176
0
177
0
178
0
179
2
271
2
272
2
273
2
274
3
275
0
276
0
277
2
278
46
279
2
280
0
281
0
282
0
283
0
284
8
285
0
286
0
288
1
289
3
290
0
340
4C
342
74
371
-2
372
-2
  0
DIMSTYLE
105
7C
330
4
100
AcDbSymbolTableRecord
100
AcDbDimStyleTableRecord
  2
EZ_M_100_H25_CM
 70
0
 40
1.0
 41
0.25
 42
0.125
 43
3.75
 44
0.375
 45
0.0
 46
0.0
 47
0.0
 48
0.0
 49
2.5
140
0.25
141
2.5
142
0.125
143
0.03937007874
144
100.0
145
0.0
146
0.5
147
0.1
148
0.0
 69
0
 70
0
 71
0
 72
0
 73
0
 74
0
 75
0
 76
0
 77
1
 78
12
 79
3
170
0
171
3
172
1
173
0
174
0
175
0
176
0
177
0
178
0
179
2
271
2
272
2
273
2
274
3
275
0
276
0
277
2
278
46
279
2
280
0
281
0
282
0
283
0
284
8
285
0
286
0
288
1
289
3
290
0
340
4C
371
-2
372
-2
  0
DIMSTYLE
105
7D
330
4
100
AcDbSymbolTableRecord
100
AcDbDimStyleTableRecord
  2
EZ_M_50_H25_CM
 70
0
 40
1.0
 41
0.125
 42
0.0625
 43
3.75
 44
0.1875
 45
0.0
 46
0.0
 47
0.0
 48
0.0
 49
2.5
140
0.125
141
2.5
142
0.0625
143
0.03937007874
144
100.0
145
0.0
146
0.5
147
0.05
148
0.0
 69
0
 70
0
 71
0
 72
0
 73
0
 74
0
 75
0
 76
0
 77
1
 78
12
 79
3
170
0
171
3
172
1
173
0
174
0
175
0
176
0
177
0
178
0
179
2
271
2
272
2
273
2
274
3
275
0
276
0
277
2
278
46
279
2
280
0
281
0
282
0
283
0
284
8
285
0
286
0
288
1
289
3
290
0
340
4C
371
-2
372
-2
  0
DIMSTYLE
105
7E
330
4
100
AcDbSymbolTableRecord
100
AcDbDimStyleTableRecord
  2
EZ_M_25_H25_CM
 70
0
 40
1.0
 41
0.0625
 42
0.03125
 43
3.75
 44
0.09375
 45
0.0
 46
0.0
 47
0.0
 48
0.0
 49
2.5
140
0.0625
141
2.5
142
0.03125
143
0.03937007874
144
100.0
145
0.0
146
0.5
147
0.025
148
0.0
 69
0
 70
0
 71
0
 72
0
 73
0
 74
0
 75
0
 76
0
 77
1
 78
12
 79
3
170
0
171
3
172
1
173
0
174
0
175
0
176
0
177
0
178
0
179
2
271
2
272
2
273
2
274
3
275
0
276
0
277
2
278
46
279
2
280
0
281
0
282
0
283
0
284
8
285
0
286
0
288
1
289
3
290
0
340
4C
371
-2
372
-2
  0
DIMSTYLE
105
7F
330
4
100
AcDbSymbolTableRecord
100
AcDbDimStyleTableRecord
  2
EZ_M_20_H25_CM
 70
0
 40
1.0
 41
0.05
 42
0.025
 43
3.75
 44
0.07500000000000001
 45
0.0
 46
0.0
 47
0.0
 48
0.0
 49
2.5
140
0.05
141
2.5
142
0.025
143
0.03937007874
144
100.0
145
0.0
146
0.5
147
0.020000000000000004
148
0.0
 69
0
 70
0
 71
0
 72
0
 73
0
 74
0
 75
0
 76
0
 77
1
 78
12
 79
3
170
0
171
3
172
1
173
0
174
0
175
0
176
0
177
0
178
0
179
2
271
2
272
2
273
2
274
3
275
0
276
0
277
2
278
46
279
2
280
0
281
0
282
0
283
0
284
8
285
0
286
0
288
1
289
3
290
0
340
4C
371
-2
372
-2
  0
DIMSTYLE
105
80
330
4
100
AcDbSymbolTableRecord
100
AcDbDimStyleTableRecord
  2
EZ_M_10_H25_CM
 70
0
 40
1.0
 41
0.025
 42
0.0125
 43
3.75
 44
0.037500000000000006
 45
0.0
 46
0.0
 47
0.0
 48
0.0
 49
2.5
140
0.025
141
2.5
142
0.0125
143
0.03937007874
144
100.0
145
0.0
146
0.5
147
0.010000000000000002
148
0.0
 69
0
 70
0
 71
0
 72
0
 73
0
 74
0
 75
0
 76
0
 77
1
 78
12
 79
3
170
0
171
3
172
1
173
0
174
0
175
0
176
0
177
0
178
0
179
2
271
2
272
2
273
2
274
3
275
0
276
0
277
2
278
46
279
2
280
0
281
0
282
0
283
0
284
8
285
0
286
0
288
1
289
3
290
0
340
4C
371
-2
372
-2
  0
DIMSTYLE
105
81
330
4
100
AcDbSymbolTableRecord
100
AcDbDimStyleTableRecord
  2
EZ_M_5_H25_CM
 70
0
 40
1.0
 41
0.0125
 42
0.00625
 43
3.75
 44
0.018750000000000003
 45
0.0
 46
0.0
 47
0.0
 48
0.0
 49
2.5
140
0.0125
141
2.5
142
0.00625
143
0.03937007874
144
100.0
145
0.0
146
0.5
147
0.005000000000000001
148
0.0
 69
0
 70
0
 71
0
 72
0
 73
0
 74
0
 75
0
 76
0
 77
1
 78
12
 79
3
170
0
171
3
172
1
173
0
174
0
175
0
176
0
177
0
178
0
179
2
271
2
272
2
273
2
274
3
275
0
276
0
277
2
278
46
279
2
280
0
281
0
282
0
283
0
284
8
285
0
286
0
288
1
289
3
290
0
340
4C
371
-2
372
-2
  0
DIMSTYLE
105
82
330
4
100
AcDbSymbolTableRecord
100
AcDbDimStyleTableRecord
  2
EZ_M_1_H25_CM
 70
0
 40
1.0
 41
0.0025
 42
0.00125
 43
3.75
 44
0.00375
 45
0.0
 46
0.0
 47
0.0
 48
0.0
 49
2.5
140
0.0025
141
2.5
142
0.00125
143
0.03937007874
144
100.0
145
0.0
146
0.5
147
0.001
148
0.0
 69
0
 70
0
 71
0
 72
0
 73
0
 74
0
 75
0
 76
0
 77
1
 78
12
 79
3
170
0
171
3
172
1
173
0
174
0
175
0
176
0
177
0
178
0
179
2
271
2
272
2
273
2
274
3
275
0
276
0
277
2
278
46
279
2
280
0
281
0
282
0
283
0
284
8
285
0
286
0
288
1
289
3
290
0
340
4C
371
-2
372
-2
  0
DIMSTYLE
105
83
330
4
100
AcDbSymbolTableRecord
100
AcDbDimStyleTableRecord
  2
EZ_RADIUS
 70
0
 40
1.0
 41
0.25
 42
0.125
 43
3.75
 44
0.375
 45
0.0
 46
0.0
 47
0.0
 48
0.0
 49
2.5
140
0.25
141
0.0
142
0.0
143
0.03937007874
144
100.0
145
0.0
146
0.5
147
0.1
148
0.0
 69
0
 70
0
 71
0
 72
0
 73
0
 74
0
 75
0
 76
0
 77
1
 78
12
 79
3
170
0
171
3
172
0
173
0
174
0
175
0
176
0
177
0
178
0
179
2
271
2
272
2
273
2
274
3
275
0
276
0
277
2
278
46
279
1
280
0
281
0
282
0
283
0
284
8
285
0
286
0
288
1
289
3
290
0
340
4C
342
84
371
-2
372
-2
  0
DIMSTYLE
105
88
330
4
100
AcDbSymbolTableRecord
100
AcDbDimStyleTableRecord
  2
EZ_RADIUS_INSIDE
 70
0
 40
1.0
 41
0.25
 42
0.125
 43
3.75
 44
0.375
 45
0.0
 46
0.0
 47
0.0
 48
0.0
 49
2.5
140
0.25
141
0.0
142
0.0
143
0.03937007874
144
100.0
145
0.0
146
0.5
147
0.1
148
0.0
 69
0
 70
0
 71
0
 72
0
 73
0
 74
0
 75
0
 76
0
 77
0
 78
12
 79
3
170
0
171
3
172
0
173
0
174
1
175
0
176
0
177
0
178
0
179
2
271
2
272
2
273
2
274
3
275
0
276
0
277
2
278
46
279
0
280
0
281
0
282
0
283
0
284
8
285
0
286
0
288
1
289
0
290
0
340
4C
342
84
371
-2
372
-2
  0
DIMSTYLE
105
89
330
4
100
AcDbSymbolTableRecord
100
AcDbDimStyleTableRecord
  2
EZ_CURVED
 70
0
 40
1.0
 41
0.25
 42
0.125
 43
3.75
 44
0.375
 45
0.0
 46
0.0
 47
0.0
 48
0.0
 49
2.5
140
0.25
141
2.5
142
0.0
143
0.03937007874
144
100.0
145
0.0
146
0.5
147
0.1
148
0.0
 69
0
 70
0
 71
0
 72
0
 73
0
 74
0
 75
0
 76
0
 77
1
 78
12
 79
2
 90
2
170
0
171
3
172
1
173
0
174
0
175
0
176
0
177
0
178
0
179
2
271
2
272
2
273
2
274
3
275
0
276
0
277
2
278
46
279
2
280
0
281
0
282
0
283
0
284
8
285
0
286
0
288
1
289
3
290
0
340
4C
371
-2
372
-2
  0
ENDTAB
  0
TABLE
  2
BLOCK_RECORD
  5
9
330
0
100
AcDbSymbolTable
 70
10
  0
BLOCK_RECORD
  5
17
330
9
100
AcDbSymbolTableRecord
100
AcDbBlockTableRecord
  2
*Model_Space
340
1A
 70
0
280
1
281
0
  0
BLOCK_RECORD
  5
1B
330
9
100
AcDbSymbolTableRecord
100
AcDbBlockTableRecord
  2
*Paper_Space
340
1E
 70
0
280
1
281
0
  0
BLOCK_RECORD
  5
74
330
9
100
AcDbSymbolTableRecord
100
AcDbBlockTableRecord
  2
_ARCHTICK
340
0
 70
0
280
1
281
0
  0
BLOCK_RECORD
  5
78
330
9
100
AcDbSymbolTableRecord
100
AcDbBlockTableRecord
  2
_CLOSEDFILLED
340
0
 70
0
280
1
281
0
  0
BLOCK_RECORD
  5
84
330
9
100
AcDbSymbolTableRecord
100
AcDbBlockTableRecord
  2
_CLOSEDBLANK
340
0
 70
0
280
1
281
0
  0
BLOCK_RECORD
  5
AB
330
9
100
AcDbSymbolTableRecord
100
AcDbBlockTableRecord
  2
*D1
340
0
 70
0
280
1
281
0
  0
BLOCK_RECORD
  5
D2
330
9
100
AcDbSymbolTableRecord
100
AcDbBlockTableRecord
  2
*D2
340
0
 70
0
280
1
281
0
  0
BLOCK_RECORD
  5
E1
330
9
100
AcDbSymbolTableRecord
100
AcDbBlockTableRecord
  2
*D3
340
0
 70
0
280
1
281
0
  0
BLOCK_RECORD
  5
F0
330
9
100
AcDbSymbolTableRecord
100
AcDbBlockTableRecord
  2
*D4
340
0
 70
0
280
1
281
0
  0
BLOCK_RECORD
  5
FF
330
9
100
AcDbSymbolTableRecord
100
AcDbBlockTableRecord
  2
*D5
340
0
 70
0
280
1
281
0
  0
ENDTAB
  0
ENDSEC
  0
SECTION
  2
BLOCKS
  0
BLOCK
  5
18
330
17
100
AcDbEntity
  8
0
100
AcDbBlockBegin
  2
*Model_Space
 70
0
 10
0.0
 20
0.0
 30
0.0
  3
*Model_Space
  1

  0
ENDBLK
  5
19
330
17
100
AcDbEntity
  8
0
100
AcDbBlockEnd
  0
BLOCK
  5
1C
330
1B
100
AcDbEntity
  8
0
100
AcDbBlockBegin
  2
*Paper_Space
 70
0
 10
0.0
 20
0.0
 30
0.0
  3
*Paper_Space
  1

  0
ENDBLK
  5
1D
330
1B
100
AcDbEntity
  8
0
100
AcDbBlockEnd
  0
BLOCK
  5
75
330
74
100
AcDbEntity
  8
0
100
AcDbBlockBegin
  2
_ARCHTICK
 70
0
 10
0.0
 20
0.0
 30
0.0
  3
_ARCHTICK
  1

  0
LWPOLYLINE
  5
77
330
74
100
AcDbEntity
  8
0
  6
BYBLOCK
 62
0
100
AcDbPolyline
 90
2
 70
0
 43
0.15
 10
-0.5
 20
-0.5
 10
0.5
 20
0.5
  0
ENDBLK
  5
76
330
74
100
AcDbEntity
  8
0
100
AcDbBlockEnd
  0
BLOCK
  5
79
330
78
100
AcDbEntity
  8
0
100
AcDbBlockBegin
  2
_CLOSEDFILLED
 70
0
 10
0.0
 20
0.0
 30
0.0
  3
_CLOSEDFILLED
  1

  0
SOLID
  5
7B
330
78
100
AcDbEntity
  8
0
  6
BYBLOCK
 62
0
100
AcDbTrace
 10
-1.0
 20
0.16439898372402537
 30
0.0
 11
0.0
 21
0.0
 31
0.0
 12
-1.0
 22
-0.16439898372402537
 32
0.0
 13
-1.0
 23
-0.16439898372402537
 33
0.0
  0
ENDBLK
  5
7A
330
78
100
AcDbEntity
  8
0
100
AcDbBlockEnd
  0
BLOCK
  5
85
330
84
100
AcDbEntity
  8
0
100
AcDbBlockBegin
  2
_CLOSEDBLANK
 70
0
 10
0.0
 20
0.0
 30
0.0
  3
_CLOSEDBLANK
  1

  0
LWPOLYLINE
  5
87
330
84
100
AcDbEntity
  8
0
  6
BYBLOCK
 62
0
100
AcDbPolyline
 90
3
 70
1
 10
-1.0
 20
0.16439898372402537
 10
0.0
 20
0.0
 10
-1.0
 20
-0.16439898372402537
  0
ENDBLK
  5
86
330
84
100
AcDbEntity
  8
0
100
AcDbBlockEnd
  0
BLOCK
  5
AC
330
AB
100
AcDbEntity
  8
0
100
AcDbBlockBegin
  2
*D1
 70
1
 10
0.0
 20
0.0
 30
0.0
  3
*D1
  1

  0
LINE
  5
AE
330
AB
100
AcDbEntity
  8
0
100
AcDbLine
 10
17.789155248982457
 20
6.199410217660799
 30
0.0
 11
17.718664367368437
 21
6.8455766324559955
 31
0.0
  0
LINE
  5
AF
330
AB
100
AcDbEntity
  8
0
100
AcDbLine
 10
23.28915524898246
 20
6.7994102176608
 30
0.0
 11
23.21866436736844
 21
7.445576632455997
 31
0.0
  0
INSERT
  5
B0
330
AB
100
AcDbEntity
  8
OLCU
100
AcDbBlockReference
  2
_ARCHTICK
 10
17.73493149389475
 20
6.696461305964796
 30
0.0
 41
0.25
 42
0.25
 50
186.22582906442577
  0
INSERT
  5
B2
330
AB
100
AcDbEntity
  8
OLCU
100
AcDbBlockReference
  2
_ARCHTICK
 10
23.234931493894752
 20
7.296461305964797
 30
0.0
 41
0.25
 42
0.25
 50
6.225829064425774
  0
LINE
  5
B4
330
AB
100
AcDbEntity
  8
0
100
AcDbLine
 10
17.73493149389475
 20
6.696461305964796
 30
0.0
 11
23.234931493894752
 21
7.296461305964797
 31
0.0
  0
MTEXT
  5
B5
330
AB
100
AcDbEntity
  8
OLCU
100
AcDbMText
 10
20.4599885665544
 20
7.2251048065846355
 30
0.0
 40
0.3
 71
5
  1
7.00 (kroki)
  7
OpenSansCondensed-Light
 50
6.225829064425774
  0
POINT
  5
B6
330
AB
100
AcDbEntity
  8
Defpoints
100
AcDbPoint
 10
17.73493149389475
 20
6.696461305964796
 30
0.0
  0
POINT
  5
B7
330
AB
100
AcDbEntity
  8
Defpoints
100
AcDbPoint
 10
17.8
 20
6.1
 30
0.0
  0
POINT
  5
B8
330
AB
100
AcDbEntity
  8
Defpoints
100
AcDbPoint
 10
23.3
 20
6.7
 30
0.0
  0
ENDBLK
  5
AD
330
AB
100
AcDbEntity
  8
0
100
AcDbBlockEnd
  0
BLOCK
  5
D3
330
D2
100
AcDbEntity
  8
0
100
AcDbBlockBegin
  2
*D2
 70
1
 10
0.0
 20
0.0
 30
0.0
  3
*D2
  1

  0
LINE
  5
D5
330
D2
100
AcDbEntity
  8
0
100
AcDbLine
 10
26.3
 20
11.1
 30
0.0
 11
26.3
 21
11.55
 31
0.0
  0
LINE
  5
D6
330
D2
100
AcDbEntity
  8
0
100
AcDbLine
 10
32.3
 20
11.1
 30
0.0
 11
32.3
 21
11.55
 31
0.0
  0
INSERT
  5
D7
330
D2
100
AcDbEntity
  8
OLCU
100
AcDbBlockReference
  2
_ARCHTICK
 10
26.3
 20
11.4
 30
0.0
 41
0.25
 42
0.25
 50
180.0
  0
INSERT
  5
D9
330
D2
100
AcDbEntity
  8
OLCU
100
AcDbBlockReference
  2
_ARCHTICK
 10
32.3
 20
11.4
 30
0.0
 41
0.25
 42
0.25
  0
LINE
  5
DB
330
D2
100
AcDbEntity
  8
0
100
AcDbLine
 10
26.3
 20
11.4
 30
0.0
 11
32.3
 21
11.4
 31
0.0
  0
MTEXT
  5
DC
330
D2
100
AcDbEntity
  8
OLCU
100
AcDbMText
 10
29.299999999999997
 20
11.63
 30
0.0
 40
0.3
 71
5
  1
6.00
  7
OpenSansCondensed-Light
  0
POINT
  5
DD
330
D2
100
AcDbEntity
  8
Defpoints
100
AcDbPoint
 10
26.3
 20
11.4
 30
0.0
  0
POINT
  5
DE
330
D2
100
AcDbEntity
  8
Defpoints
100
AcDbPoint
 10
26.3
 20
11.0
 30
0.0
  0
POINT
  5
DF
330
D2
100
AcDbEntity
  8
Defpoints
100
AcDbPoint
 10
32.3
 20
11.0
 30
0.0
  0
ENDBLK
  5
D4
330
D2
100
AcDbEntity
  8
0
100
AcDbBlockEnd
  0
BLOCK
  5
E2
330
E1
100
AcDbEntity
  8
0
100
AcDbBlockBegin
  2
*D3
 70
1
 10
0.0
 20
0.0
 30
0.0
  3
*D3
  1

  0
LINE
  5
E4
330
E1
100
AcDbEntity
  8
0
100
AcDbLine
 10
32.199999999999996
 20
11.0
 30
0.0
 11
31.65
 21
11.0
 31
0.0
  0
LINE
  5
E5
330
E1
100
AcDbEntity
  8
0
100
AcDbLine
 10
32.199999999999996
 20
7.0
 30
0.0
 11
31.65
 21
7.0
 31
0.0
  0
INSERT
  5
E6
330
E1
100
AcDbEntity
  8
OLCU
100
AcDbBlockReference
  2
_ARCHTICK
 10
31.799999999999997
 20
11.0
 30
0.0
 41
0.25
 42
0.25
 50
90.0
  0
INSERT
  5
E8
330
E1
100
AcDbEntity
  8
OLCU
100
AcDbBlockReference
  2
_ARCHTICK
 10
31.799999999999997
 20
7.0
 30
0.0
 41
0.25
 42
0.25
 50
-90.0
  0
LINE
  5
EA
330
E1
100
AcDbEntity
  8
0
100
AcDbLine
 10
31.799999999999997
 20
11.0
 30
0.0
 11
31.799999999999997
 21
7.0
 31
0.0
  0
MTEXT
  5
EB
330
E1
100
AcDbEntity
  8
OLCU
100
AcDbMText
 10
32.029999999999994
 20
9.0
 30
0.0
 40
0.3
 71
5
  1
4.00
  7
OpenSansCondensed-Light
 50
-90.0
  0
POINT
  5
EC
330
E1
100
AcDbEntity
  8
Defpoints
100
AcDbPoint
 10
31.799999999999997
 20
11.0
 30
0.0
  0
POINT
  5
ED
330
E1
100
AcDbEntity
  8
Defpoints
100
AcDbPoint
 10
32.3
 20
11.0
 30
0.0
  0
POINT
  5
EE
330
E1
100
AcDbEntity
  8
Defpoints
100
AcDbPoint
 10
32.3
 20
7.0
 30
0.0
  0
ENDBLK
  5
E3
330
E1
100
AcDbEntity
  8
0
100
AcDbBlockEnd
  0
BLOCK
  5
F1
330
F0
100
AcDbEntity
  8
0
100
AcDbBlockBegin
  2
*D4
 70
1
 10
0.0
 20
0.0
 30
0.0
  3
*D4
  1

  0
LINE
  5
F3
330
F0
100
AcDbEntity
  8
0
100
AcDbLine
 10
32.22928932188134
 20
7.070710678118655
 30
0.0
 11
31.911091270347395
 21
7.3889087296526
 31
0.0
  0
LINE
  5
F4
330
F0
100
AcDbEntity
  8
0
100
AcDbLine
 10
31.380761184457487
 20
6.2221825406947975
 30
0.0
 11
31.062563132923543
 21
6.540380592228746
 31
0.0
  0
INSERT
  5
F5
330
F0
100
AcDbEntity
  8
OLCU
100
AcDbBlockReference
  2
_ARCHTICK
 10
32.01715728752538
 20
7.2828427124746185
 30
0.0
 41
0.25
 42
0.25
 50
45.00000000000006
  0
INSERT
  5
F7
330
F0
100
AcDbEntity
  8
OLCU
100
AcDbBlockReference
  2
_ARCHTICK
 10
31.168629150101523
 20
6.434314575050763
 30
0.0
 41
0.25
 42
0.25
 50
-134.99999999999994
  0
LINE
  5
F9
330
F0
100
AcDbEntity
  8
0
100
AcDbLine
 10
32.01715728752538
 20
7.2828427124746185
 30
0.0
 11
31.168629150101523
 21
6.434314575050763
 31
0.0
  0
MTEXT
  5
FA
330
F0
100
AcDbEntity
  8
OLCU
100
AcDbMText
 10
31.86159379566434
 20
6.589878066911803
 30
0.0
 40
0.3
 71
5
  1
1.20
  7
OpenSansCondensed-Light
 50
-134.99999999999994
  0
POINT
  5
FB
330
F0
100
AcDbEntity
  8
Defpoints
100
AcDbPoint
 10
32.01715728752538
 20
7.2828427124746185
 30
0.0
  0
POINT
  5
FC
330
F0
100
AcDbEntity
  8
Defpoints
100
AcDbPoint
 10
32.3
 20
7.0
 30
0.0
  0
POINT
  5
FD
330
F0
100
AcDbEntity
  8
Defpoints
100
AcDbPoint
 10
31.451471862576142
 20
6.151471862576143
 30
0.0
  0
ENDBLK
  5
F2
330
F0
100
AcDbEntity
  8
0
100
AcDbBlockEnd
  0
BLOCK
  5
100
330
FF
100
AcDbEntity
  8
0
100
AcDbBlockBegin
  2
*D5
 70
1
 10
0.0
 20
0.0
 30
0.0
  3
*D5
  1

  0
LINE
  5
102
330
FF
100
AcDbEntity
  8
0
100
AcDbLine
 10
26.3
 20
6.051471862576143
 30
0.0
 11
26.3
 21
5.101471862576142
 31
0.0
  0
LINE
  5
103
330
FF
100
AcDbEntity
  8
0
100
AcDbLine
 10
31.451471862576142
 20
6.051471862576143
 30
0.0
 11
31.451471862576142
 21
5.101471862576142
 31
0.0
  0
INSERT
  5
104
330
FF
100
AcDbEntity
  8
OLCU
100
AcDbBlockReference
  2
_ARCHTICK
 10
26.3
 20
5.2514718625761425
 30
0.0
 41
0.25
 42
0.25
 50
180.0
  0
INSERT
  5
106
330
FF
100
AcDbEntity
  8
OLCU
100
AcDbBlockReference
  2
_ARCHTICK
 10
31.451471862576142
 20
5.2514718625761425
 30
0.0
 41
0.25
 42
0.25
  0
LINE
  5
108
330
FF
100
AcDbEntity
  8
0
100
AcDbLine
 10
26.3
 20
5.2514718625761425
 30
0.0
 11
31.451471862576142
 21
5.2514718625761425
 31
0.0
  0
MTEXT
  5
109
330
FF
100
AcDbEntity
  8
OLCU
100
AcDbMText
 10
28.87573593128807
 20
5.481471862576143
 30
0.0
 40
0.3
 71
5
  1
5.15
  7
OpenSansCondensed-Light
  0
POINT
  5
10A
330
FF
100
AcDbEntity
  8
Defpoints
100
AcDbPoint
 10
26.3
 20
5.2514718625761425
 30
0.0
  0
POINT
  5
10B
330
FF
100
AcDbEntity
  8
Defpoints
100
AcDbPoint
 10
26.3
 20
6.151471862576143
 30
0.0
  0
POINT
  5
10C
330
FF
100
AcDbEntity
  8
Defpoints
100
AcDbPoint
 10
31.451471862576142
 20
6.151471862576143
 30
0.0
  0
ENDBLK
  5
101
330
FF
100
AcDbEntity
  8
0
100
AcDbBlockEnd
  0
ENDSEC
  0
SECTION
  2
ENTITIES
  0
LWPOLYLINE
  5
9A
330
17
100
AcDbEntity
  8
SINIR-YOL
100
AcDbPolyline
 90
2
 70
0
 10
31.9
 20
35.76
 10
38.3
 20
36.6
  0
LWPOLYLINE
  5
9B
330
17
100
AcDbEntity
  8
SINIR-YOL
100
AcDbPolyline
 90
4
 70
0
 10
32.9
 20
35.5
 10
33.2
 20
31.8
 10
35.8
 20
25.0
 10
37.7
 20
20.4
  0
LWPOLYLINE
  5
9C
330
17
100
AcDbEntity
  8
SINIR-YOL
100
AcDbPolyline
 90
4
 70
0
 10
31.8
 20
33.9
 10
34.0
 20
29.4
 10
36.0
 20
24.2
 10
37.4
 20
20.6
  0
LWPOLYLINE
  5
9D
330
17
100
AcDbEntity
  8
SINIR-YOL
100
AcDbPolyline
 90
3
 70
0
 10
37.76
 20
20.1
 10
37.7
 20
11.0
 10
37.56
 20
1.7
  0
LWPOLYLINE
  5
9E
330
17
100
AcDbEntity
  8
SINIR-YOL
100
AcDbPolyline
 90
5
 70
0
 10
13.6
 20
1.0
 10
18.0
 20
1.4
 10
25.0
 20
0.9
 10
30.0
 20
0.4
 10
36.0
 20
0.1
  0
LWPOLYLINE
  5
9F
330
17
100
AcDbEntity
  8
SINIR-YOL
100
AcDbPolyline
 90
2
 70
0
 10
34.7
 20
0.4
 10
37.6
 20
2.0
  0
TEXT
  5
A0
330
17
100
AcDbEntity
  8
SINIR-YOL
100
AcDbText
 10
38.8
 20
11.0
 30
0.0
 40
0.45
  1
YOL / PARSEL SINIRI (teyit)
 50
90.0
  7
TR
 72
1
 11
38.8
 21
11.0
 31
0.0
100
AcDbText
 73
2
  0
TEXT
  5
A1
330
17
100
AcDbEntity
  8
SINIR-YOL
100
AcDbText
 10
24.0
 20
0.3
 30
0.0
 40
0.45
  1
YOL / PARSEL SINIRI (teyit)
  7
TR
 72
1
 11
24.0
 21
0.3
 31
0.0
100
AcDbText
 73
2
  0
LWPOLYLINE
  5
A2
330
17
100
AcDbEntity
  8
BINA
100
AcDbPolyline
 90
6
 70
1
 10
3.7
 20
27.74
 10
18.3
 20
28.8
 10
18.3
 20
31.3
 10
17.4
 20
31.96
 10
12.0
 20
31.4
 10
7.7
 20
29.9
  0
TEXT
  5
A3
330
17
100
AcDbEntity
  8
BINA
100
AcDbText
 10
12.0
 20
29.1
 30
0.0
 40
0.5
  1
SATIŞ BİNASI / MARKET (teyit)
  7
TR
 72
1
 11
12.0
 21
29.1
 31
0.0
100
AcDbText
 73
2
  0
LWPOLYLINE
  5
A4
330
17
100
AcDbEntity
  8
TEYIT
100
AcDbPolyline
 90
7
 70
1
 10
15.0
 20
33.5
 10
16.4
 20
33.7
 10
17.2
 20
33.8
 10
18.2
 20
35.2
 10
19.5
 20
31.0
 10
18.3
 20
30.4
 10
16.4
 20
30.4
  0
TEXT
  5
A5
330
17
100
AcDbEntity
  8
TEYIT
100
AcDbText
 10
17.4
 20
32.4
 30
0.0
 40
0.35
  1
EK YAPI / ELEMAN ?
  7
TR
 72
1
 11
17.4
 21
32.4
 31
0.0
100
AcDbText
 73
2
  0
LWPOLYLINE
  5
A6
330
17
100
AcDbEntity
  8
BINA
100
AcDbPolyline
 90
12
 70
1
 10
0.4
 20
6.8
 10
3.3
 20
6.9
 10
6.2
 20
7.6
 10
9.6
 20
6.9
 10
17.8
 20
6.1
 10
23.3
 20
6.7
 10
23.6
 20
3.9
 10
17.6
 20
3.6
 10
17.4
 20
2.4
 10
10.6
 20
3.3
 10
5.0
 20
3.1
 10
0.4
 20
4.1
  0
LWPOLYLINE
  5
A7
330
17
100
AcDbEntity
  8
BINA
100
AcDbPolyline
 90
2
 70
0
 10
9.6
 20
6.9
 10
9.6
 20
3.7
  0
LWPOLYLINE
  5
A8
330
17
100
AcDbEntity
  8
BINA
100
AcDbPolyline
 90
2
 70
0
 10
17.8
 20
6.1
 10
17.56
 20
2.5
  0
TEXT
  5
A9
330
17
100
AcDbEntity
  8
BINA
100
AcDbText
 10
11.2
 20
5.0
 30
0.0
 40
0.45
  1
MEVCUT YAPI (yıkama/servis? - teyit)
  7
TR
 72
1
 11
11.2
 21
5.0
 31
0.0
100
AcDbText
 73
2
  0
DIMENSION
  5
AA
330
17
100
AcDbEntity
  8
OLCU
100
AcDbDimension
280
0
  2
*D1
  3
EZDXF
 10
17.73493149389475
 20
6.696461305964796
 30
0.0
 11
20.4599885665544
 21
7.2251048065846355
 31
0.0
 70
32
 71
5
  1
7.00 (kroki)
100
AcDbAlignedDimension
 13
17.8
 23
6.1
 33
0.0
 14
23.3
 24
6.7
 34
0.0
 50
6.225829064425774
100
AcDbRotatedDimension
1001
ACAD
1000
DSTYLE
1002
{
1070
140
1040
0.3
1070
41
1040
0.25
1070
271
1070
2
1070
44
1040
0.15
1070
42
1040
0.1
1070
147
1040
0.08
1002
}
  0
LWPOLYLINE
  5
B9
330
17
100
AcDbEntity
  8
TEYIT
100
AcDbPolyline
 90
4
 70
1
 10
34.3
 20
12.3
 10
36.4
 20
12.3
 10
36.4
 20
17.5
 10
34.3
 20
17.5
  0
LWPOLYLINE
  5
BA
330
17
100
AcDbEntity
  8
TEYIT
100
AcDbPolyline
 90
2
 70
0
 10
34.1
 20
16.6
 10
36.8
 20
16.6
  0
TEXT
  5
BB
330
17
100
AcDbEntity
  8
TEYIT
100
AcDbText
 10
35.4
 20
18.2
 30
0.0
 40
0.3
  1
HAVA-SU / GİRİŞ ? ('Ara...' notu)
  7
TR
 72
1
 11
35.4
 21
18.2
 31
0.0
100
AcDbText
 73
2
  0
LWPOLYLINE
  5
BC
330
17
100
AcDbEntity
  8
POMPA-ADASI
100
AcDbPolyline
 90
4
 70
1
 10
5.6
 20
23.69
 10
11.6
 20
23.69
 10
11.6
 20
25.19
 10
5.6
 20
25.19
  0
LWPOLYLINE
  5
BD
330
17
100
AcDbEntity
  8
POMPA-ADASI
100
AcDbPolyline
 90
4
 70
1
 10
6.5
 20
24.14
 10
7.5
 20
24.14
 10
7.5
 20
24.740000000000002
 10
6.5
 20
24.740000000000002
  0
LWPOLYLINE
  5
BE
330
17
100
AcDbEntity
  8
POMPA-ADASI
100
AcDbPolyline
 90
4
 70
1
 10
9.7
 20
24.14
 10
10.7
 20
24.14
 10
10.7
 20
24.740000000000002
 10
9.7
 20
24.740000000000002
  0
TEXT
  5
BF
330
17
100
AcDbEntity
  8
POMPA-ADASI
100
AcDbText
 10
8.6
 20
25.540000000000003
 30
0.0
 40
0.35
  1
ADA-1  BENZİN/MOTORİN
  7
TR
 72
1
 11
8.6
 21
25.540000000000003
 31
0.0
100
AcDbText
 73
2
  0
LWPOLYLINE
  5
C0
330
17
100
AcDbEntity
  8
POMPA-ADASI
100
AcDbPolyline
 90
4
 70
1
 10
17.44
 20
23.25
 10
23.44
 20
23.25
 10
23.44
 20
24.75
 10
17.44
 20
24.75
  0
LWPOLYLINE
  5
C1
330
17
100
AcDbEntity
  8
POMPA-ADASI
100
AcDbPolyline
 90
4
 70
1
 10
18.34
 20
23.7
 10
19.34
 20
23.7
 10
19.34
 20
24.3
 10
18.34
 20
24.3
  0
LWPOLYLINE
  5
C2
330
17
100
AcDbEntity
  8
POMPA-ADASI
100
AcDbPolyline
 90
4
 70
1
 10
21.540000000000003
 20
23.7
 10
22.540000000000003
 20
23.7
 10
22.540000000000003
 20
24.3
 10
21.540000000000003
 20
24.3
  0
TEXT
  5
C3
330
17
100
AcDbEntity
  8
POMPA-ADASI
100
AcDbText
 10
20.44
 20
25.1
 30
0.0
 40
0.35
  1
ADA-2  BENZİN/MOTORİN
  7
TR
 72
1
 11
20.44
 21
25.1
 31
0.0
100
AcDbText
 73
2
  0
LWPOLYLINE
  5
C4
330
17
100
AcDbEntity
  8
POMPA-ADASI
100
AcDbPolyline
 90
4
 70
1
 10
6.74
 20
13.81
 10
12.74
 20
13.81
 10
12.74
 20
15.31
 10
6.74
 20
15.31
  0
LWPOLYLINE
  5
C5
330
17
100
AcDbEntity
  8
POMPA-ADASI
100
AcDbPolyline
 90
4
 70
1
 10
7.640000000000001
 20
14.26
 10
8.64
 20
14.26
 10
8.64
 20
14.86
 10
7.640000000000001
 20
14.86
  0
LWPOLYLINE
  5
C6
330
17
100
AcDbEntity
  8
POMPA-ADASI
100
AcDbPolyline
 90
4
 70
1
 10
10.84
 20
14.26
 10
11.84
 20
14.26
 10
11.84
 20
14.86
 10
10.84
 20
14.86
  0
TEXT
  5
C7
330
17
100
AcDbEntity
  8
POMPA-ADASI
100
AcDbText
 10
9.74
 20
15.66
 30
0.0
 40
0.35
  1
ADA-3  BENZİN/MOTORİN
  7
TR
 72
1
 11
9.74
 21
15.66
 31
0.0
100
AcDbText
 73
2
  0
LWPOLYLINE
  5
C8
330
17
100
AcDbEntity
  8
POMPA-ADASI
100
AcDbPolyline
 90
4
 70
1
 10
16.84
 20
13.65
 10
22.84
 20
13.65
 10
22.84
 20
15.15
 10
16.84
 20
15.15
  0
LWPOLYLINE
  5
C9
330
17
100
AcDbEntity
  8
POMPA-ADASI
100
AcDbPolyline
 90
4
 70
1
 10
17.74
 20
14.1
 10
18.74
 20
14.1
 10
18.74
 20
14.7
 10
17.74
 20
14.7
  0
LWPOLYLINE
  5
CA
330
17
100
AcDbEntity
  8
POMPA-ADASI
100
AcDbPolyline
 90
4
 70
1
 10
20.94
 20
14.1
 10
21.94
 20
14.1
 10
21.94
 20
14.7
 10
20.94
 20
14.7
  0
TEXT
  5
CB
330
17
100
AcDbEntity
  8
POMPA-ADASI
100
AcDbText
 10
19.84
 20
15.5
 30
0.0
 40
0.35
  1
ADA-4  LPG DİSPENSERİ
  7
TR
 72
1
 11
19.84
 21
15.5
 31
0.0
100
AcDbText
 73
2
  0
LWPOLYLINE
  5
CC
330
17
100
AcDbEntity
  8
KANOPI
100
AcDbPolyline
 90
4
 70
1
 10
3.5999999999999996
 20
11.9
 10
25.440000000000005
 20
11.9
 10
25.440000000000005
 20
28.439999999999998
 10
3.5999999999999996
 20
28.439999999999998
  0
TEXT
  5
CD
330
17
100
AcDbEntity
  8
KANOPI
100
AcDbText
 10
14.52
 20
27.84
 30
0.0
 40
0.4
  1
KANOPİ İZDÜŞÜMÜ
  7
TR
 72
1
 11
14.52
 21
27.84
 31
0.0
100
AcDbText
 73
2
  0
LWPOLYLINE
  5
CE
330
17
100
AcDbEntity
  8
LPG-SAHA
100
AcDbPolyline
 90
5
 70
1
 10
26.3
 20
11.0
 10
32.3
 20
11.0
 10
32.3
 20
7.0
 10
31.451471862576142
 20
6.151471862576143
 10
26.3
 20
6.151471862576143
  0
LWPOLYLINE
  5
CF
330
17
100
AcDbEntity
  8
LPG-SAHA
100
AcDbPolyline
 90
5
 70
1
 10
26.45
 20
10.85
 10
32.15
 20
10.85
 10
32.15
 20
7.0
 10
31.451471862576142
 20
6.301471862576143
 10
26.45
 20
6.301471862576143
  0
TEXT
  5
D0
330
17
100
AcDbEntity
  8
LPG-SAHA
100
AcDbText
 10
29.3
 20
12.3
 30
0.0
 40
0.35
  1
LPG TANK SAHASI (tel çitli, çarpma bariyerli)
  7
TR
 72
1
 11
29.3
 21
12.3
 31
0.0
100
AcDbText
 73
2
  0
DIMENSION
  5
D1
330
17
100
AcDbEntity
  8
OLCU
100
AcDbDimension
280
0
  2
*D2
  3
EZDXF
 10
26.3
 20
11.4
 30
0.0
 11
29.299999999999997
 21
11.63
 31
0.0
 70
32
 71
5
  1
6.00
100
AcDbAlignedDimension
 13
26.3
 23
11.0
 33
0.0
 14
32.3
 24
11.0
 34
0.0
 50
0.0
100
AcDbRotatedDimension
1001
ACAD
1000
DSTYLE
1002
{
1070
140
1040
0.3
1070
41
1040
0.25
1070
271
1070
2
1070
44
1040
0.15
1070
42
1040
0.1
1070
147
1040
0.08
1002
}
  0
DIMENSION
  5
E0
330
17
100
AcDbEntity
  8
OLCU
100
AcDbDimension
280
0
  2
*D3
  3
EZDXF
 10
31.799999999999997
 20
11.0
 30
0.0
 11
32.029999999999994
 21
9.0
 31
0.0
 70
32
 71
5
  1
4.00
100
AcDbAlignedDimension
 13
32.3
 23
11.0
 33
0.0
 14
32.3
 24
7.0
 34
0.0
 50
-90.0
100
AcDbRotatedDimension
1001
ACAD
1000
DSTYLE
1002
{
1070
140
1040
0.3
1070
41
1040
0.25
1070
271
1070
2
1070
44
1040
0.15
1070
42
1040
0.1
1070
147
1040
0.08
1002
}
  0
DIMENSION
  5
EF
330
17
100
AcDbEntity
  8
OLCU
100
AcDbDimension
280
0
  2
*D4
  3
EZDXF
 10
32.01715728752538
 20
7.2828427124746185
 30
0.0
 11
31.86159379566434
 21
6.589878066911803
 31
0.0
 70
32
 71
5
  1
1.20
100
AcDbAlignedDimension
 13
32.3
 23
7.0
 33
0.0
 14
31.451471862576142
 24
6.151471862576143
 34
0.0
 50
-134.99999999999994
100
AcDbRotatedDimension
1001
ACAD
1000
DSTYLE
1002
{
1070
140
1040
0.3
1070
41
1040
0.25
1070
271
1070
2
1070
44
1040
0.15
1070
42
1040
0.1
1070
147
1040
0.08
1002
}
  0
DIMENSION
  5
FE
330
17
100
AcDbEntity
  8
OLCU
100
AcDbDimension
280
0
  2
*D5
  3
EZDXF
 10
26.3
 20
5.2514718625761425
 30
0.0
 11
28.87573593128807
 21
5.481471862576143
 31
0.0
 70
32
 71
5
  1
5.15
100
AcDbAlignedDimension
 13
26.3
 23
6.151471862576143
 33
0.0
 14
31.451471862576142
 24
6.151471862576143
 34
0.0
 50
0.0
100
AcDbRotatedDimension
1001
ACAD
1000
DSTYLE
1002
{
1070
140
1040
0.3
1070
41
1040
0.25
1070
271
1070
2
1070
44
1040
0.15
1070
42
1040
0.1
1070
147
1040
0.08
1002
}
  0
LWPOLYLINE
  5
10D
330
17
100
AcDbEntity
  8
LPG-SAHA
100
AcDbPolyline
 90
2
 70
0
 10
26.900000000000002
 20
5.551471862576143
 10
27.700000000000003
 20
5.551471862576143
  0
LWPOLYLINE
  5
10E
330
17
100
AcDbEntity
  8
LPG-SAHA
100
AcDbPolyline
 90
2
 70
0
 10
28.3
 20
5.551471862576143
 10
29.1
 20
5.551471862576143
  0
LWPOLYLINE
  5
10F
330
17
100
AcDbEntity
  8
LPG-SAHA
100
AcDbPolyline
 90
2
 70
0
 10
29.700000000000003
 20
5.551471862576143
 10
30.500000000000004
 20
5.551471862576143
  0
LWPOLYLINE
  5
110
330
17
100
AcDbEntity
  8
LPG-SAHA
100
AcDbPolyline
 90
2
 70
0
 10
31.1
 20
5.551471862576143
 10
31.900000000000002
 20
5.551471862576143
  0
LWPOLYLINE
  5
111
330
17
100
AcDbEntity
  8
LPG-TANK
100
AcDbPolyline
 90
2
 70
0
 10
27.400000000000002
 20
7.575735931288073
 10
31.2
 20
7.575735931288073
  0
LWPOLYLINE
  5
112
330
17
100
AcDbEntity
  8
LPG-TANK
100
AcDbPolyline
 90
2
 70
0
 10
27.400000000000002
 20
9.175735931288074
 10
31.2
 20
9.175735931288074
  0
ARC
  5
113
330
17
100
AcDbEntity
  8
LPG-TANK
100
AcDbCircle
 10
27.400000000000002
 20
8.375735931288073
 30
0.0
 40
0.8
100
AcDbArc
 50
90.0
 51
270.0
  0
ARC
  5
114
330
17
100
AcDbEntity
  8
LPG-TANK
100
AcDbCircle
 10
31.2
 20
8.375735931288073
 30
0.0
 40
0.8
100
AcDbArc
 50
270.0
 51
90.0
  0
CIRCLE
  5
115
330
17
100
AcDbEntity
  8
LPG-SAHA
100
AcDbCircle
 10
29.900000000000002
 20
8.375735931288073
 30
0.0
 40
0.3
  0
TEXT
  5
116
330
17
100
AcDbEntity
  8
LPG-TANK
100
AcDbText
 10
28.1
 20
8.375735931288073
 30
0.0
 40
0.22
  1
LPG TANKI 10 m³
  7
TR
 72
1
 11
28.1
 21
8.375735931288073
 31
0.0
100
AcDbText
 73
2
  0
TEXT
  5
117
330
17
100
AcDbEntity
  8
LPG-TANK
100
AcDbText
 10
29.3
 20
4.651471862576143
 30
0.0
 40
0.25
  1
Tank: 10 m³ (plaka poz 25), hesapta Ø1.60 x L5.40 m kabul - etiketten teyit
  7
TR
 72
1
 11
29.3
 21
4.651471862576143
 31
0.0
100
AcDbText
 73
2
  0
TEXT
  5
118
330
17
100
AcDbEntity
  8
LPG-SAHA
100
AcDbText
 10
29.900000000000002
 20
8.825735931288072
 30
0.0
 40
0.18
  1
MENHOL
  7
TR
 72
1
 11
29.900000000000002
 21
8.825735931288072
 31
0.0
100
AcDbText
 73
2
  0
LWPOLYLINE
  5
119
330
17
100
AcDbEntity
  8
LPG-SAHA
100
AcDbPolyline
 90
4
 70
1
 10
26.7
 20
9.9
 10
27.9
 20
9.9
 10
27.9
 20
10.4
 10
26.7
 20
10.4
  0
TEXT
  5
11A
330
17
100
AcDbEntity
  8
LPG-SAHA
100
AcDbText
 10
27.3
 20
10.6
 30
0.0
 40
0.18
  1
KADEMELİ POMPA
  7
TR
 72
1
 11
27.3
 21
10.6
 31
0.0
100
AcDbText
 73
2
  0
LWPOLYLINE
  5
11B
330
17
100
AcDbEntity
  8
LPG-HAT
100
AcDbPolyline
 90
3
 70
0
 10
29.900000000000002
 20
8.375735931288073
 10
29.900000000000002
 20
10.15
 10
27.3
 20
10.15
  0
LWPOLYLINE
  5
11C
330
17
100
AcDbEntity
  8
LPG-HAT
100
AcDbPolyline
 90
5
 70
0
 10
27.3
 20
10.15
 10
26.25
 20
10.15
 10
25.25
 20
10.15
 10
22.94
 20
12.9
 10
21.44
 20
14.1
  0
LWPOLYLINE
  5
11D
330
17
100
AcDbEntity
  8
LPG-HAT
100
AcDbPolyline
 90
5
 70
0
 10
27.3
 20
10.0
 10
26.25
 20
10.0
 10
25.25
 20
10.0
 10
22.94
 20
12.75
 10
21.44
 20
13.95
  0
LWPOLYLINE
  5
11E
330
17
100
AcDbEntity
  8
LPG-HAT
100
AcDbPolyline
 90
2
 70
0
 10
24.095
 20
11.525
 10
23.35
 20
8.15
  0
MTEXT
  5
11F
330
17
100
AcDbEntity
  8
LPG-HAT
100
AcDbMText
 10
15.75
 20
8.55
 30
0.0
 40
0.22
 71
1
  1
LPG HATLARI: BASMA + GERİ DÖNÜŞ\PSCH80 dikişsiz çelik, toprak altı, kaplamalı
  7
TR
  0
LWPOLYLINE
  5
120
330
17
100
AcDbEntity
  8
OLCU
100
AcDbPolyline
 90
2
 70
0
 10
22.84
 20
13.65
 10
26.3
 20
11.0
  0
TEXT
  5
121
330
17
100
AcDbEntity
  8
OLCU
100
AcDbText
 10
25.3
 20
13.2
 30
0.0
 40
0.22
  1
dispenser-tank sahası ≈ 4.4 m (krokide 5+5 m) - mesafeler TEYİT
  7
TR
 11
25.3
 21
13.2
 31
0.0
100
AcDbText
 73
2
  0
LWPOLYLINE
  5
122
330
17
100
AcDbEntity
  8
KK-IZOLASYON
100
AcDbPolyline
 90
2
 70
0
 10
29.85
 20
8.575735931288072
 10
29.85
 20
9.075735931288072
  0
LWPOLYLINE
  5
123
330
17
100
AcDbEntity
  8
KK-IZOLASYON
100
AcDbPolyline
 90
2
 70
0
 10
29.950000000000003
 20
8.575735931288072
 10
29.950000000000003
 20
9.075735931288072
  0
TEXT
  5
124
330
17
100
AcDbEntity
  8
KK-IZOLASYON
100
AcDbText
 10
29.900000000000002
 20
9.275735931288072
 30
0.0
 40
0.18
  1
İF-1
  7
TR
 72
1
 11
29.900000000000002
 21
9.275735931288072
 31
0.0
100
AcDbText
 73
2
  0
LWPOLYLINE
  5
125
330
17
100
AcDbEntity
  8
KK-IZOLASYON
100
AcDbPolyline
 90
2
 70
0
 10
26.2
 20
9.9
 10
26.2
 20
10.4
  0
LWPOLYLINE
  5
126
330
17
100
AcDbEntity
  8
KK-IZOLASYON
100
AcDbPolyline
 90
2
 70
0
 10
26.3
 20
9.9
 10
26.3
 20
10.4
  0
TEXT
  5
127
330
17
100
AcDbEntity
  8
KK-IZOLASYON
100
AcDbText
 10
26.25
 20
10.6
 30
0.0
 40
0.18
  1
İF-2
  7
TR
 72
1
 11
26.25
 21
10.6
 31
0.0
100
AcDbText
 73
2
  0
LWPOLYLINE
  5
128
330
17
100
AcDbEntity
  8
KK-IZOLASYON
100
AcDbPolyline
 90
2
 70
0
 10
21.39
 20
13.55
 10
21.39
 20
14.05
  0
LWPOLYLINE
  5
129
330
17
100
AcDbEntity
  8
KK-IZOLASYON
100
AcDbPolyline
 90
2
 70
0
 10
21.490000000000002
 20
13.55
 10
21.490000000000002
 20
14.05
  0
TEXT
  5
12A
330
17
100
AcDbEntity
  8
KK-IZOLASYON
100
AcDbText
 10
21.44
 20
14.25
 30
0.0
 40
0.18
  1
İF-3
  7
TR
 72
1
 11
21.44
 21
14.25
 31
0.0
100
AcDbText
 73
2
  0
CIRCLE
  5
12B
330
17
100
AcDbEntity
  8
KK-ANOT
100
AcDbCircle
 10
28.200000000000003
 20
9.975735931288074
 30
0.0
 40
0.1
  0
CIRCLE
  5
12C
330
17
100
AcDbEntity
  8
KK-ANOT
100
AcDbCircle
 10
28.200000000000003
 20
9.975735931288074
 30
0.0
 40
0.2
  0
HATCH
  5
12D
330
17
100
AcDbEntity
  8
KK-ANOT
 62
30
100
AcDbHatch
 10
0.0
 20
0.0
 30
0.0
210
0.0
220
0.0
230
1.0
  2
SOLID
 70
1
 71
0
 91
1
 92
3
 72
0
 73
1
 93
16
 10
28.300000000000004
 20
9.975735931288074
 10
28.292387953251133
 20
10.014004274524584
 10
28.270710678118657
 20
10.046446609406729
 10
28.238268343236513
 20
10.068123884539203
 10
28.200000000000003
 20
10.075735931288074
 10
28.161731656763493
 20
10.068123884539203
 10
28.12928932188135
 20
10.046446609406729
 10
28.107612046748873
 20
10.014004274524584
 10
28.1
 20
9.975735931288074
 10
28.107612046748873
 20
9.937467588051565
 10
28.12928932188135
 20
9.90502525316942
 10
28.161731656763493
 20
9.883347978036946
 10
28.200000000000003
 20
9.875735931288075
 10
28.238268343236513
 20
9.883347978036946
 10
28.270710678118657
 20
9.90502525316942
 10
28.292387953251133
 20
9.937467588051565
 97
0
 75
0
 76
1
 98
0
  0
TEXT
  5
12E
330
17
100
AcDbEntity
  8
KK-ANOT
100
AcDbText
 10
28.200000000000003
 20
10.355735931288075
 30
0.0
 40
0.17
  1
MA-1 (10 Lb)
  7
TR
 72
1
 11
28.200000000000003
 21
10.355735931288075
 31
0.0
100
AcDbText
 73
2
  0
CIRCLE
  5
12F
330
17
100
AcDbEntity
  8
KK-ANOT
100
AcDbCircle
 10
28.200000000000003
 20
6.775735931288073
 30
0.0
 40
0.1
  0
CIRCLE
  5
130
330
17
100
AcDbEntity
  8
KK-ANOT
100
AcDbCircle
 10
28.200000000000003
 20
6.775735931288073
 30
0.0
 40
0.2
  0
HATCH
  5
131
330
17
100
AcDbEntity
  8
KK-ANOT
 62
30
100
AcDbHatch
 10
0.0
 20
0.0
 30
0.0
210
0.0
220
0.0
230
1.0
  2
SOLID
 70
1
 71
0
 91
1
 92
3
 72
0
 73
1
 93
16
 10
28.300000000000004
 20
6.775735931288073
 10
28.292387953251133
 20
6.814004274524582
 10
28.270710678118657
 20
6.846446609406728
 10
28.238268343236513
 20
6.868123884539202
 10
28.200000000000003
 20
6.875735931288073
 10
28.161731656763493
 20
6.868123884539202
 10
28.12928932188135
 20
6.846446609406728
 10
28.107612046748873
 20
6.814004274524582
 10
28.1
 20
6.775735931288073
 10
28.107612046748873
 20
6.737467588051564
 10
28.12928932188135
 20
6.705025253169419
 10
28.161731656763493
 20
6.683347978036945
 10
28.200000000000003
 20
6.675735931288074
 10
28.238268343236513
 20
6.683347978036945
 10
28.270710678118657
 20
6.705025253169419
 10
28.292387953251133
 20
6.737467588051564
 97
0
 75
0
 76
1
 98
0
  0
TEXT
  5
132
330
17
100
AcDbEntity
  8
KK-ANOT
100
AcDbText
 10
28.200000000000003
 20
6.3957359312880735
 30
0.0
 40
0.17
  1
MA-2 (10 Lb)
  7
TR
 72
1
 11
28.200000000000003
 21
6.3957359312880735
 31
0.0
100
AcDbText
 73
2
  0
CIRCLE
  5
133
330
17
100
AcDbEntity
  8
KK-ANOT
100
AcDbCircle
 10
31.0
 20
9.975735931288074
 30
0.0
 40
0.1
  0
CIRCLE
  5
134
330
17
100
AcDbEntity
  8
KK-ANOT
100
AcDbCircle
 10
31.0
 20
9.975735931288074
 30
0.0
 40
0.2
  0
HATCH
  5
135
330
17
100
AcDbEntity
  8
KK-ANOT
 62
30
100
AcDbHatch
 10
0.0
 20
0.0
 30
0.0
210
0.0
220
0.0
230
1.0
  2
SOLID
 70
1
 71
0
 91
1
 92
3
 72
0
 73
1
 93
16
 10
31.1
 20
9.975735931288074
 10
31.09238795325113
 20
10.014004274524584
 10
31.070710678118655
 20
10.046446609406729
 10
31.03826834323651
 20
10.068123884539203
 10
31.0
 20
10.075735931288074
 10
30.96173165676349
 20
10.068123884539203
 10
30.929289321881345
 20
10.046446609406729
 10
30.90761204674887
 20
10.014004274524584
 10
30.9
 20
9.975735931288074
 10
30.90761204674887
 20
9.937467588051565
 10
30.929289321881345
 20
9.90502525316942
 10
30.96173165676349
 20
9.883347978036946
 10
31.0
 20
9.875735931288075
 10
31.03826834323651
 20
9.883347978036946
 10
31.070710678118655
 20
9.90502525316942
 10
31.09238795325113
 20
9.937467588051565
 97
0
 75
0
 76
1
 98
0
  0
TEXT
  5
136
330
17
100
AcDbEntity
  8
KK-ANOT
100
AcDbText
 10
31.0
 20
10.355735931288075
 30
0.0
 40
0.17
  1
MA-3 (10 Lb)
  7
TR
 72
1
 11
31.0
 21
10.355735931288075
 31
0.0
100
AcDbText
 73
2
  0
CIRCLE
  5
137
330
17
100
AcDbEntity
  8
KK-ANOT
100
AcDbCircle
 10
31.0
 20
6.775735931288073
 30
0.0
 40
0.1
  0
CIRCLE
  5
138
330
17
100
AcDbEntity
  8
KK-ANOT
100
AcDbCircle
 10
31.0
 20
6.775735931288073
 30
0.0
 40
0.2
  0
HATCH
  5
139
330
17
100
AcDbEntity
  8
KK-ANOT
 62
30
100
AcDbHatch
 10
0.0
 20
0.0
 30
0.0
210
0.0
220
0.0
230
1.0
  2
SOLID
 70
1
 71
0
 91
1
 92
3
 72
0
 73
1
 93
16
 10
31.1
 20
6.775735931288073
 10
31.09238795325113
 20
6.814004274524582
 10
31.070710678118655
 20
6.846446609406728
 10
31.03826834323651
 20
6.868123884539202
 10
31.0
 20
6.875735931288073
 10
30.96173165676349
 20
6.868123884539202
 10
30.929289321881345
 20
6.846446609406728
 10
30.90761204674887
 20
6.814004274524582
 10
30.9
 20
6.775735931288073
 10
30.90761204674887
 20
6.737467588051564
 10
30.929289321881345
 20
6.705025253169419
 10
30.96173165676349
 20
6.683347978036945
 10
31.0
 20
6.675735931288074
 10
31.03826834323651
 20
6.683347978036945
 10
31.070710678118655
 20
6.705025253169419
 10
31.09238795325113
 20
6.737467588051564
 97
0
 75
0
 76
1
 98
0
  0
TEXT
  5
13A
330
17
100
AcDbEntity
  8
KK-ANOT
100
AcDbText
 10
31.0
 20
6.3957359312880735
 30
0.0
 40
0.17
  1
MA-4 (10 Lb)
  7
TR
 72
1
 11
31.0
 21
6.3957359312880735
 31
0.0
100
AcDbText
 73
2
  0
CIRCLE
  5
13B
330
17
100
AcDbEntity
  8
KK-ANOT
100
AcDbCircle
 10
22.64
 20
13.1
 30
0.0
 40
0.1
  0
CIRCLE
  5
13C
330
17
100
AcDbEntity
  8
KK-ANOT
100
AcDbCircle
 10
22.64
 20
13.1
 30
0.0
 40
0.2
  0
HATCH
  5
13D
330
17
100
AcDbEntity
  8
KK-ANOT
 62
30
100
AcDbHatch
 10
0.0
 20
0.0
 30
0.0
210
0.0
220
0.0
230
1.0
  2
SOLID
 70
1
 71
0
 91
1
 92
3
 72
0
 73
1
 93
16
 10
22.740000000000002
 20
13.1
 10
22.73238795325113
 20
13.13826834323651
 10
22.710710678118655
 20
13.170710678118654
 10
22.67826834323651
 20
13.192387953251128
 10
22.64
 20
13.2
 10
22.60173165676349
 20
13.192387953251128
 10
22.569289321881346
 20
13.170710678118654
 10
22.54761204674887
 20
13.13826834323651
 10
22.54
 20
13.1
 10
22.54761204674887
 20
13.06173165676349
 10
22.569289321881346
 20
13.029289321881345
 10
22.60173165676349
 20
13.007612046748871
 10
22.64
 20
13.0
 10
22.67826834323651
 20
13.007612046748871
 10
22.710710678118655
 20
13.029289321881345
 10
22.73238795325113
 20
13.06173165676349
 97
0
 75
0
 76
1
 98
0
  0
TEXT
  5
13E
330
17
100
AcDbEntity
  8
KK-ANOT
100
AcDbText
 10
22.64
 20
12.719999999999999
 30
0.0
 40
0.17
  1
MA-5 (3,5 Lb)
  7
TR
 72
1
 11
22.64
 21
12.719999999999999
 31
0.0
100
AcDbText
 73
2
  0
CIRCLE
  5
13F
330
17
100
AcDbEntity
  8
KK-ANOT
100
AcDbCircle
 10
20.44
 20
13.1
 30
0.0
 40
0.1
  0
CIRCLE
  5
140
330
17
100
AcDbEntity
  8
KK-ANOT
100
AcDbCircle
 10
20.44
 20
13.1
 30
0.0
 40
0.2
  0
HATCH
  5
141
330
17
100
AcDbEntity
  8
KK-ANOT
 62
30
100
AcDbHatch
 10
0.0
 20
0.0
 30
0.0
210
0.0
220
0.0
230
1.0
  2
SOLID
 70
1
 71
0
 91
1
 92
3
 72
0
 73
1
 93
16
 10
20.540000000000003
 20
13.1
 10
20.53238795325113
 20
13.13826834323651
 10
20.510710678118656
 20
13.170710678118654
 10
20.47826834323651
 20
13.192387953251128
 10
20.44
 20
13.2
 10
20.40173165676349
 20
13.192387953251128
 10
20.369289321881347
 20
13.170710678118654
 10
20.34761204674887
 20
13.13826834323651
 10
20.34
 20
13.1
 10
20.34761204674887
 20
13.06173165676349
 10
20.369289321881347
 20
13.029289321881345
 10
20.40173165676349
 20
13.007612046748871
 10
20.44
 20
13.0
 10
20.47826834323651
 20
13.007612046748871
 10
20.510710678118656
 20
13.029289321881345
 10
20.53238795325113
 20
13.06173165676349
 97
0
 75
0
 76
1
 98
0
  0
TEXT
  5
142
330
17
100
AcDbEntity
  8
KK-ANOT
100
AcDbText
 10
20.44
 20
12.719999999999999
 30
0.0
 40
0.17
  1
MA-6 (3,5 Lb)
  7
TR
 72
1
 11
20.44
 21
12.719999999999999
 31
0.0
100
AcDbText
 73
2
  0
LWPOLYLINE
  5
143
330
17
100
AcDbEntity
  8
KK-OLCUM
100
AcDbPolyline
 90
4
 70
1
 10
25.5
 20
6.5014718625761425
 10
25.9
 20
6.5014718625761425
 10
25.9
 20
6.801471862576142
 10
25.5
 20
6.801471862576142
  0
LWPOLYLINE
  5
144
330
17
100
AcDbEntity
  8
KK-OLCUM
100
AcDbPolyline
 90
2
 70
0
 10
25.5
 20
6.5014718625761425
 10
25.9
 20
6.801471862576143
  0
TEXT
  5
145
330
17
100
AcDbEntity
  8
KK-OLCUM
100
AcDbText
 10
25.7
 20
6.2514718625761425
 30
0.0
 40
0.2
  1
ÖK-1
  7
TR
 72
1
 11
25.7
 21
6.2514718625761425
 31
0.0
100
AcDbText
 73
2
  0
LWPOLYLINE
  5
146
330
17
100
AcDbEntity
  8
KK-OLCUM
100
AcDbPolyline
 90
4
 70
1
 10
21.340000000000003
 20
11.950000000000001
 10
21.740000000000002
 20
11.950000000000001
 10
21.740000000000002
 20
12.250000000000002
 10
21.340000000000003
 20
12.250000000000002
  0
LWPOLYLINE
  5
147
330
17
100
AcDbEntity
  8
KK-OLCUM
100
AcDbPolyline
 90
2
 70
0
 10
21.340000000000003
 20
11.950000000000001
 10
21.740000000000002
 20
12.250000000000002
  0
TEXT
  5
148
330
17
100
AcDbEntity
  8
KK-OLCUM
100
AcDbText
 10
21.540000000000003
 20
11.700000000000001
 30
0.0
 40
0.2
  1
ÖK-2
  7
TR
 72
1
 11
21.540000000000003
 21
11.700000000000001
 31
0.0
100
AcDbText
 73
2
  0
CIRCLE
  5
149
330
17
100
AcDbEntity
  8
KK-OLCUM
100
AcDbCircle
 10
29.6
 20
7.225735931288074
 30
0.0
 40
0.12
  0
TEXT
  5
14A
330
17
100
AcDbEntity
  8
KK-OLCUM
100
AcDbText
 10
29.900000000000002
 20
7.225735931288074
 30
0.0
 40
0.16
  1
RE
  7
TR
 72
1
 11
29.900000000000002
 21
7.225735931288074
 31
0.0
100
AcDbText
 73
2
  0
LWPOLYLINE
  5
14B
330
17
100
AcDbEntity
  8
KK-KABLO
100
AcDbPolyline
 90
4
 70
0
 10
28.200000000000003
 20
9.975735931288074
 10
26.6
 20
9.975735931288074
 10
26.6
 20
6.651471862576143
 10
25.9
 20
6.651471862576143
  0
LWPOLYLINE
  5
14C
330
17
100
AcDbEntity
  8
KK-KABLO
100
AcDbPolyline
 90
4
 70
0
 10
28.200000000000003
 20
6.775735931288073
 10
26.6
 20
6.775735931288073
 10
26.6
 20
6.651471862576143
 10
25.9
 20
6.651471862576143
  0
LWPOLYLINE
  5
14D
330
17
100
AcDbEntity
  8
KK-KABLO
100
AcDbPolyline
 90
4
 70
0
 10
31.0
 20
9.975735931288074
 10
26.6
 20
9.975735931288074
 10
26.6
 20
6.651471862576143
 10
25.9
 20
6.651471862576143
  0
LWPOLYLINE
  5
14E
330
17
100
AcDbEntity
  8
KK-KABLO
100
AcDbPolyline
 90
4
 70
0
 10
31.0
 20
6.775735931288073
 10
26.6
 20
6.775735931288073
 10
26.6
 20
6.651471862576143
 10
25.9
 20
6.651471862576143
  0
LWPOLYLINE
  5
14F
330
17
100
AcDbEntity
  8
KK-KABLO
100
AcDbPolyline
 90
3
 70
0
 10
26.900000000000002
 20
7.575735931288073
 10
26.900000000000002
 20
6.701471862576143
 10
25.9
 20
6.701471862576143
  0
LWPOLYLINE
  5
150
330
17
100
AcDbEntity
  8
KK-KABLO
100
AcDbPolyline
 90
3
 70
0
 10
29.6
 20
7.225735931288074
 10
29.6
 20
6.601471862576143
 10
25.9
 20
6.601471862576143
  0
LWPOLYLINE
  5
151
330
17
100
AcDbEntity
  8
KK-KABLO
100
AcDbPolyline
 90
3
 70
0
 10
22.64
 20
13.1
 10
22.64
 20
12.100000000000001
 10
21.740000000000002
 20
12.100000000000001
  0
LWPOLYLINE
  5
152
330
17
100
AcDbEntity
  8
KK-KABLO
100
AcDbPolyline
 90
3
 70
0
 10
20.44
 20
13.1
 10
20.44
 20
12.100000000000001
 10
21.340000000000003
 20
12.100000000000001
  0
LWPOLYLINE
  5
153
330
17
100
AcDbEntity
  8
KK-KABLO
100
AcDbPolyline
 90
2
 70
0
 10
21.540000000000003
 20
12.250000000000002
 10
21.540000000000003
 20
13.950000000000001
  0
TEXT
  5
154
330
17
100
AcDbEntity
  8
YAZI
100
AcDbText
 10
42.0
 20
37.0
 30
0.0
 40
0.5
  1
LEJANT
  7
TR
 11
42.0
 21
37.0
 31
0.0
100
AcDbText
  0
LWPOLYLINE
  5
155
330
17
100
AcDbEntity
  8
SINIR-YOL
100
AcDbPolyline
 90
2
 70
0
 10
42.0
 20
36.0
 10
43.5
 20
36.0
  0
TEXT
  5
156
330
17
100
AcDbEntity
  8
YAZI
100
AcDbText
 10
44.0
 20
36.0
 30
0.0
 40
0.28
  1
Yol / parsel sınırı
  7
TR
 11
44.0
 21
36.0
 31
0.0
100
AcDbText
 73
2
  0
LWPOLYLINE
  5
157
330
17
100
AcDbEntity
  8
BINA
100
AcDbPolyline
 90
2
 70
0
 10
42.0
 20
35.4
 10
43.5
 20
35.4
  0
TEXT
  5
158
330
17
100
AcDbEntity
  8
YAZI
100
AcDbText
 10
44.0
 20
35.4
 30
0.0
 40
0.28
  1
Bina / yapı
  7
TR
 11
44.0
 21
35.4
 31
0.0
100
AcDbText
 73
2
  0
LWPOLYLINE
  5
159
330
17
100
AcDbEntity
  8
KANOPI
100
AcDbPolyline
 90
2
 70
0
 10
42.0
 20
34.8
 10
43.5
 20
34.8
  0
TEXT
  5
15A
330
17
100
AcDbEntity
  8
YAZI
100
AcDbText
 10
44.0
 20
34.8
 30
0.0
 40
0.28
  1
Kanopi izdüşümü
  7
TR
 11
44.0
 21
34.8
 31
0.0
100
AcDbText
 73
2
  0
LWPOLYLINE
  5
15B
330
17
100
AcDbEntity
  8
POMPA-ADASI
100
AcDbPolyline
 90
2
 70
0
 10
42.0
 20
34.2
 10
43.5
 20
34.2
  0
TEXT
  5
15C
330
17
100
AcDbEntity
  8
YAZI
100
AcDbText
 10
44.0
 20
34.2
 30
0.0
 40
0.28
  1
Pompa adası / dispenser
  7
TR
 11
44.0
 21
34.2
 31
0.0
100
AcDbText
 73
2
  0
LWPOLYLINE
  5
15D
330
17
100
AcDbEntity
  8
LPG-SAHA
100
AcDbPolyline
 90
2
 70
0
 10
42.0
 20
33.6
 10
43.5
 20
33.6
  0
TEXT
  5
15E
330
17
100
AcDbEntity
  8
YAZI
100
AcDbText
 10
44.0
 20
33.6
 30
0.0
 40
0.28
  1
LPG tank sahası, çit
  7
TR
 11
44.0
 21
33.6
 31
0.0
100
AcDbText
 73
2
  0
LWPOLYLINE
  5
15F
330
17
100
AcDbEntity
  8
LPG-TANK
100
AcDbPolyline
 90
2
 70
0
 10
42.0
 20
33.0
 10
43.5
 20
33.0
  0
TEXT
  5
160
330
17
100
AcDbEntity
  8
YAZI
100
AcDbText
 10
44.0
 20
33.0
 30
0.0
 40
0.28
  1
LPG tankı (yeraltı)
  7
TR
 11
44.0
 21
33.0
 31
0.0
100
AcDbText
 73
2
  0
LWPOLYLINE
  5
161
330
17
100
AcDbEntity
  8
LPG-HAT
100
AcDbPolyline
 90
2
 70
0
 10
42.0
 20
32.4
 10
43.5
 20
32.4
  0
TEXT
  5
162
330
17
100
AcDbEntity
  8
YAZI
100
AcDbText
 10
44.0
 20
32.4
 30
0.0
 40
0.28
  1
LPG hattı
  7
TR
 11
44.0
 21
32.4
 31
0.0
100
AcDbText
 73
2
  0
LWPOLYLINE
  5
163
330
17
100
AcDbEntity
  8
KK-ANOT
100
AcDbPolyline
 90
2
 70
0
 10
42.0
 20
31.8
 10
43.5
 20
31.8
  0
TEXT
  5
164
330
17
100
AcDbEntity
  8
YAZI
100
AcDbText
 10
44.0
 20
31.8
 30
0.0
 40
0.28
  1
Mg anot (MA)
  7
TR
 11
44.0
 21
31.8
 31
0.0
100
AcDbText
 73
2
  0
LWPOLYLINE
  5
165
330
17
100
AcDbEntity
  8
KK-KABLO
100
AcDbPolyline
 90
2
 70
0
 10
42.0
 20
31.2
 10
43.5
 20
31.2
  0
TEXT
  5
166
330
17
100
AcDbEntity
  8
YAZI
100
AcDbText
 10
44.0
 20
31.2
 30
0.0
 40
0.28
  1
KK kablosu (NYY 1x10 mm²)
  7
TR
 11
44.0
 21
31.2
 31
0.0
100
AcDbText
 73
2
  0
LWPOLYLINE
  5
167
330
17
100
AcDbEntity
  8
KK-OLCUM
100
AcDbPolyline
 90
2
 70
0
 10
42.0
 20
30.6
 10
43.5
 20
30.6
  0
TEXT
  5
168
330
17
100
AcDbEntity
  8
YAZI
100
AcDbText
 10
44.0
 20
30.6
 30
0.0
 40
0.28
  1
Ölçüm kutusu (ÖK) / referans elektrot
  7
TR
 11
44.0
 21
30.6
 31
0.0
100
AcDbText
 73
2
  0
LWPOLYLINE
  5
169
330
17
100
AcDbEntity
  8
KK-IZOLASYON
100
AcDbPolyline
 90
2
 70
0
 10
42.0
 20
30.0
 10
43.5
 20
30.0
  0
TEXT
  5
16A
330
17
100
AcDbEntity
  8
YAZI
100
AcDbText
 10
44.0
 20
30.0
 30
0.0
 40
0.28
  1
İzolasyon flanşı (İF)
  7
TR
 11
44.0
 21
30.0
 31
0.0
100
AcDbText
 73
2
  0
LWPOLYLINE
  5
16B
330
17
100
AcDbEntity
  8
TEYIT
100
AcDbPolyline
 90
2
 70
0
 10
42.0
 20
29.4
 10
43.5
 20
29.4
  0
TEXT
  5
16C
330
17
100
AcDbEntity
  8
YAZI
100
AcDbText
 10
44.0
 20
29.4
 30
0.0
 40
0.28
  1
Krokiden okunamayan / teyit edilecek
  7
TR
 11
44.0
 21
29.4
 31
0.0
100
AcDbText
 73
2
  0
MTEXT
  5
16D
330
17
100
AcDbEntity
  8
YAZI
100
AcDbMText
 10
42.0
 20
28.0
 30
0.0
 40
0.26
 41
26.0
 71
1
  3
KATODİK KORUMA TASARIM ÖZETİ (TASLAK)\PSistem: Galvanik (kurban) anotlu katodik koruma - yeraltı LPG tankı + toprak altı LPG hatları\PStandartlar: TS EN 13636 (yeraltı tank/boru KK), TS EN 12954, TS EN 13509 (ölçüm), TS EN 12068 (kaplama)\PKoruma kri
  3
teri: Ekoff ≤ -850 mV (Cu/CuSO4), aşırı koruma sınırı -1200 mV (kaplama)\P\PSAHA PLAKASINDAN: Poz 25 LPG stok tankı 10 m³ | Poz 24 2 ad. 10 Lb Mg anot | Poz 17 2 ad. 3,5 Lb Mg anot\P                  Poz 13 6 ad. izole flanş kiti | hatlar SCH80 dikiş
  3
siz çelik 1" ve 1 1/2"\P\PTank yüzeyi (10 m³, Ø1.6 x 5.4 m kabul): 31.6 m²\PHat yüzeyi (2 x ~14 m)  : 3.7 m²\PToplam yüzey           : 35.2 m²\PAkım yoğunluğu         : 20 mA/m² x %10 kaplama hasarı x 1.3 emniyet\PGerekli akım           : 92 mA\PZemi
  3
n özdirenci (kabul): 30 Ω·m  (SAHADA ÖLÇÜLECEK)\PAnot direnci (Dwight)  : 10 Lb 19.6 Ω -> 46 mA | 3,5 Lb 29.4 Ω -> 31 mA\PAnot sayısı            : 4 x 10 Lb (tank) + 2 x 3,5 Lb (dispenser) = 6 adet\PToplam kapasite        : 245 mA  (≥ 92 mA  OK)\PGer
  3
ekli anot kütlesi   : 15.4 kg / 20 yıl  -> tesis edilen 21.2 kg\PHesaplanan ömür        : ≈ 28 yıl  (plakadaki 2x10 Lb + 2x3,5 Lb ile ≈ 16 yıl)\P\PNOTLAR\P1. Anotlar tank alt seviyesinde, tank yüzeyinden ~0.8-1.5 m mesafede, düşey; ıslatılarak gömüle
  3
cek.\P2. Tank anotları ÖK-1, dispenser anotları ÖK-2 içinde şönt (0.01 Ω) üzerinden tank bağlantısına bağlanacak (akım ölçülebilir).\P3. Tank bağlantısı 2 ayrı kablo ile (yedekli), termit/pin kaynağı ile yapılacak; kaynak yeri kaplanacak.\P4. İzole f
  3
lanş kitleri: tank çıkışları (İF-1), saha çıkışı (İF-2), dispenser girişi (İF-3); plakada toplam 6 ad.\P5. Tank topraklaması KK'yı kısa devre etmemesi için DC dekuplör (polarizasyon hücresi) üzerinden.\P6. Kalıcı Cu/CuSO4 referans elektrot tank yanın
  3
a; ÖK-1'de ölçüm terminali.\P7. Devreye alma: doğal potansiyel, ON/OFF ölçümleri, anot akımları raporlanacak; yılda 1 periyodik ölçüm.\P8. Kroki ölçeksizdir; yerleşim ~50 px = 1 m kabulü ile çizildi. TÜM ÖLÇÜLER VE GÜVENLİK MESAFELERİ\P    (LPG Piyas
  1
ası Teknik Düzenlemeler / TS 11939) SAHADA TEYİT EDİLECEKTİR.
  7
TR
  0
TEXT
  5
16E
330
17
100
AcDbEntity
  8
YAZI
100
AcDbText
 10
42.0
 20
9.6
 30
0.0
 40
0.35
  1
DETAY-A: Mg ANOT MONTAJI (ölçeksiz)
  7
TR
 11
42.0
 21
9.6
 31
0.0
100
AcDbText
  0
LWPOLYLINE
  5
16F
330
17
100
AcDbEntity
  8
PAFTA
100
AcDbPolyline
 90
2
 70
0
 10
42.0
 20
9.0
 10
48.0
 20
9.0
  0
TEXT
  5
170
330
17
100
AcDbEntity
  8
YAZI
100
AcDbText
 10
48.2
 20
9.0
 30
0.0
 40
0.2
  1
zemin kotu
  7
TR
 11
48.2
 21
9.0
 31
0.0
100
AcDbText
 73
2
  0
LWPOLYLINE
  5
171
330
17
100
AcDbEntity
  8
KK-ANOT
100
AcDbPolyline
 90
4
 70
1
 10
43.0
 20
6.0
 10
43.6
 20
6.0
 10
43.6
 20
7.5
 10
43.0
 20
7.5
  0
LWPOLYLINE
  5
172
330
17
100
AcDbEntity
  8
KK-ANOT
100
AcDbPolyline
 90
4
 70
1
 10
43.2
 20
6.25
 10
43.400000000000006
 20
6.25
 10
43.400000000000006
 20
7.25
 10
43.2
 20
7.25
  0
LWPOLYLINE
  5
173
330
17
100
AcDbEntity
  8
KK-KABLO
100
AcDbPolyline
 90
3
 70
0
 10
43.3
 20
7.5
 10
43.3
 20
8.5
 10
46.0
 20
8.5
  0
LWPOLYLINE
  5
174
330
17
100
AcDbEntity
  8
KK-OLCUM
100
AcDbPolyline
 90
4
 70
1
 10
46.0
 20
8.2
 10
46.8
 20
8.2
 10
46.8
 20
8.799999999999999
 10
46.0
 20
8.799999999999999
  0
TEXT
  5
175
330
17
100
AcDbEntity
  8
KK-OLCUM
100
AcDbText
 10
46.4
 20
8.5
 30
0.0
 40
0.2
  1
ÖK
  7
TR
 72
1
 11
46.4
 21
8.5
 31
0.0
100
AcDbText
 73
2
  0
MTEXT
  5
176
330
17
100
AcDbEntity
  8
YAZI
100
AcDbMText
 10
43.9
 20
7.4
 30
0.0
 40
0.18
 71
1
  1
Mg anot 10 Lb / 3,5 Lb\Pbentonit-alçı-\Psodyum sülfat dolgu\PNYY 1x10 mm² kablo\Pmin. 0.8 m derinlik
  7
TR
  0
TEXT
  5
177
330
17
100
AcDbEntity
  8
YAZI
100
AcDbText
 10
53.0
 20
9.6
 30
0.0
 40
0.35
  1
DETAY-B: ÖLÇÜM KUTUSU ÖK-1 BAĞLANTI ŞEMASI
  7
TR
 11
53.0
 21
9.6
 31
0.0
100
AcDbText
  0
LWPOLYLINE
  5
178
330
17
100
AcDbEntity
  8
KK-OLCUM
100
AcDbPolyline
 90
4
 70
1
 10
53.0
 20
4.8
 10
61.0
 20
4.8
 10
61.0
 20
9.2
 10
53.0
 20
9.2
  0
LWPOLYLINE
  5
179
330
17
100
AcDbEntity
  8
KK-OLCUM
100
AcDbPolyline
 90
2
 70
0
 10
54.0
 20
8.6
 10
60.0
 20
8.6
  0
TEXT
  5
17A
330
17
100
AcDbEntity
  8
KK-OLCUM
100
AcDbText
 10
57.0
 20
8.85
 30
0.0
 40
0.2
  1
TANK BARASI (T1+T2)
  7
TR
 72
1
 11
57.0
 21
8.85
 31
0.0
100
AcDbText
 73
2
  0
LWPOLYLINE
  5
17B
330
17
100
AcDbEntity
  8
KK-OLCUM
100
AcDbPolyline
 90
4
 70
1
 10
54.050000000000004
 20
7.3
 10
54.35
 20
7.3
 10
54.35
 20
8.1
 10
54.050000000000004
 20
8.1
  0
LWPOLYLINE
  5
17C
330
17
100
AcDbEntity
  8
KK-OLCUM
100
AcDbPolyline
 90
2
 70
0
 10
54.2
 20
8.1
 10
54.2
 20
8.6
  0
LWPOLYLINE
  5
17D
330
17
100
AcDbEntity
  8
KK-KABLO
100
AcDbPolyline
 90
2
 70
0
 10
54.2
 20
7.3
 10
54.2
 20
6.3
  0
TEXT
  5
17E
330
17
100
AcDbEntity
  8
KK-ANOT
100
AcDbText
 10
54.2
 20
6.05
 30
0.0
 40
0.18
  1
MA-1
  7
TR
 72
1
 11
54.2
 21
6.05
 31
0.0
100
AcDbText
 73
2
  0
TEXT
  5
17F
330
17
100
AcDbEntity
  8
KK-OLCUM
100
AcDbText
 10
54.650000000000006
 20
7.7
 30
0.0
 40
0.14
  1
şönt
 50
90.0
  7
TR
 72
1
 11
54.650000000000006
 21
7.7
 31
0.0
100
AcDbText
 73
2
  0
LWPOLYLINE
  5
180
330
17
100
AcDbEntity
  8
KK-OLCUM
100
AcDbPolyline
 90
4
 70
1
 10
55.650000000000006
 20
7.3
 10
55.95
 20
7.3
 10
55.95
 20
8.1
 10
55.650000000000006
 20
8.1
  0
LWPOLYLINE
  5
181
330
17
100
AcDbEntity
  8
KK-OLCUM
100
AcDbPolyline
 90
2
 70
0
 10
55.800000000000004
 20
8.1
 10
55.800000000000004
 20
8.6
  0
LWPOLYLINE
  5
182
330
17
100
AcDbEntity
  8
KK-KABLO
100
AcDbPolyline
 90
2
 70
0
 10
55.800000000000004
 20
7.3
 10
55.800000000000004
 20
6.3
  0
TEXT
  5
183
330
17
100
AcDbEntity
  8
KK-ANOT
100
AcDbText
 10
55.800000000000004
 20
6.05
 30
0.0
 40
0.18
  1
MA-2
  7
TR
 72
1
 11
55.800000000000004
 21
6.05
 31
0.0
100
AcDbText
 73
2
  0
TEXT
  5
184
330
17
100
AcDbEntity
  8
KK-OLCUM
100
AcDbText
 10
56.25000000000001
 20
7.7
 30
0.0
 40
0.14
  1
şönt
 50
90.0
  7
TR
 72
1
 11
56.25000000000001
 21
7.7
 31
0.0
100
AcDbText
 73
2
  0
LWPOLYLINE
  5
185
330
17
100
AcDbEntity
  8
KK-OLCUM
100
AcDbPolyline
 90
4
 70
1
 10
57.25000000000001
 20
7.3
 10
57.550000000000004
 20
7.3
 10
57.550000000000004
 20
8.1
 10
57.25000000000001
 20
8.1
  0
LWPOLYLINE
  5
186
330
17
100
AcDbEntity
  8
KK-OLCUM
100
AcDbPolyline
 90
2
 70
0
 10
57.400000000000006
 20
8.1
 10
57.400000000000006
 20
8.6
  0
LWPOLYLINE
  5
187
330
17
100
AcDbEntity
  8
KK-KABLO
100
AcDbPolyline
 90
2
 70
0
 10
57.400000000000006
 20
7.3
 10
57.400000000000006
 20
6.3
  0
TEXT
  5
188
330
17
100
AcDbEntity
  8
KK-ANOT
100
AcDbText
 10
57.400000000000006
 20
6.05
 30
0.0
 40
0.18
  1
MA-3
  7
TR
 72
1
 11
57.400000000000006
 21
6.05
 31
0.0
100
AcDbText
 73
2
  0
TEXT
  5
189
330
17
100
AcDbEntity
  8
KK-OLCUM
100
AcDbText
 10
57.85000000000001
 20
7.7
 30
0.0
 40
0.14
  1
şönt
 50
90.0
  7
TR
 72
1
 11
57.85000000000001
 21
7.7
 31
0.0
100
AcDbText
 73
2
  0
LWPOLYLINE
  5
18A
330
17
100
AcDbEntity
  8
KK-OLCUM
100
AcDbPolyline
 90
4
 70
1
 10
58.85
 20
7.3
 10
59.15
 20
7.3
 10
59.15
 20
8.1
 10
58.85
 20
8.1
  0
LWPOLYLINE
  5
18B
330
17
100
AcDbEntity
  8
KK-OLCUM
100
AcDbPolyline
 90
2
 70
0
 10
59.0
 20
8.1
 10
59.0
 20
8.6
  0
LWPOLYLINE
  5
18C
330
17
100
AcDbEntity
  8
KK-KABLO
100
AcDbPolyline
 90
2
 70
0
 10
59.0
 20
7.3
 10
59.0
 20
6.3
  0
TEXT
  5
18D
330
17
100
AcDbEntity
  8
KK-ANOT
100
AcDbText
 10
59.0
 20
6.05
 30
0.0
 40
0.18
  1
MA-4
  7
TR
 72
1
 11
59.0
 21
6.05
 31
0.0
100
AcDbText
 73
2
  0
TEXT
  5
18E
330
17
100
AcDbEntity
  8
KK-OLCUM
100
AcDbText
 10
59.45
 20
7.7
 30
0.0
 40
0.14
  1
şönt
 50
90.0
  7
TR
 72
1
 11
59.45
 21
7.7
 31
0.0
100
AcDbText
 73
2
  0
TEXT
  5
18F
330
17
100
AcDbEntity
  8
KK-OLCUM
100
AcDbText
 10
57.0
 20
5.4
 30
0.0
 40
0.2
  1
RE terminali
  7
TR
 72
1
 11
57.0
 21
5.4
 31
0.0
100
AcDbText
 73
2
  0
LWPOLYLINE
  5
190
330
17
100
AcDbEntity
  8
PAFTA
100
AcDbPolyline
 90
4
 70
1
 10
-2.0
 20
-6.0
 10
72.0
 20
-6.0
 10
72.0
 20
41.0
 10
-2.0
 20
41.0
  0
LWPOLYLINE
  5
191
330
17
100
AcDbEntity
  8
PAFTA
100
AcDbPolyline
 90
4
 70
1
 10
50.0
 20
-6.0
 10
72.0
 20
-6.0
 10
72.0
 20
-1.0
 10
50.0
 20
-1.0
  0
LWPOLYLINE
  5
192
330
17
100
AcDbEntity
  8
PAFTA
100
AcDbPolyline
 90
2
 70
0
 10
50.0
 20
-5.0
 10
72.0
 20
-5.0
  0
LWPOLYLINE
  5
193
330
17
100
AcDbEntity
  8
PAFTA
100
AcDbPolyline
 90
2
 70
0
 10
50.0
 20
-4.0
 10
72.0
 20
-4.0
  0
LWPOLYLINE
  5
194
330
17
100
AcDbEntity
  8
PAFTA
100
AcDbPolyline
 90
2
 70
0
 10
50.0
 20
-2.5
 10
72.0
 20
-2.5
  0
TEXT
  5
195
330
17
100
AcDbEntity
  8
PAFTA
100
AcDbText
 10
61.0
 20
-1.7000000000000002
 30
0.0
 40
0.45
  1
AKARYAKIT + LPG İSTASYONU
  7
TR
 72
1
 11
61.0
 21
-1.7000000000000002
 31
0.0
100
AcDbText
 73
2
  0
TEXT
  5
196
330
17
100
AcDbEntity
  8
PAFTA
100
AcDbText
 10
61.0
 20
-3.25
 30
0.0
 40
0.4
  1
YERLEŞİM PLANI ve LPG TANKI KATODİK KORUMA PROJESİ
  7
TR
 72
1
 11
61.0
 21
-3.25
 31
0.0
100
AcDbText
 73
2
  0
TEXT
  5
197
330
17
100
AcDbEntity
  8
PAFTA
100
AcDbText
 10
61.0
 20
-4.5
 30
0.0
 40
0.3
  1
ÖLÇEK: 1/100 (1 birim = 1 m)    PAFTA: KK-01    REV: T0 (TASLAK)
  7
TR
 72
1
 11
61.0
 21
-4.5
 31
0.0
100
AcDbText
 73
2
  0
TEXT
  5
198
330
17
100
AcDbEntity
  8
PAFTA
100
AcDbText
 10
61.0
 20
-5.5
 30
0.0
 40
0.3
  1
TARİH: 07.10.2026   ÇİZEN: -   KONTROL: -   ONAY: -
  7
TR
 72
1
 11
61.0
 21
-5.5
 31
0.0
100
AcDbText
 73
2
  0
LWPOLYLINE
  5
199
330
17
100
AcDbEntity
  8
PAFTA
100
AcDbPolyline
 90
4
 70
1
 10
3.0
 20
36.0
 10
2.5
 20
34.8
 10
3.0
 20
35.1
 10
3.5
 20
34.8
  0
TEXT
  5
19A
330
17
100
AcDbEntity
  8
TEYIT
100
AcDbText
 10
3.0
 20
36.4
 30
0.0
 40
0.3
  1
K ? (teyit)
  7
TR
 72
1
 11
3.0
 21
36.4
 31
0.0
100
AcDbText
 73
2
  0
ENDSEC
  0
SECTION
  2
OBJECTS
  0
DICTIONARY
  5
A
330
0
100
AcDbDictionary
281
1
  3
ACAD_COLOR
350
B
  3
ACAD_GROUP
350
C
  3
ACAD_LAYOUT
350
D
  3
ACAD_MATERIAL
350
E
  3
ACAD_MLEADERSTYLE
350
F
  3
ACAD_MLINESTYLE
350
10
  3
ACAD_PLOTSETTINGS
350
11
  3
ACAD_PLOTSTYLENAME
350
12
  3
ACAD_SCALELIST
350
14
  3
ACAD_TABLESTYLE
350
15
  3
ACAD_VISUALSTYLE
350
16
  3
EZDXF_META
350
2D
  0
DICTIONARY
  5
B
330
A
100
AcDbDictionary
281
1
  0
DICTIONARY
  5
C
330
A
100
AcDbDictionary
281
1
  0
DICTIONARY
  5
D
330
A
100
AcDbDictionary
281
1
  3
Model
350
1A
  3
Layout1
350
1E
  0
DICTIONARY
  5
E
330
A
100
AcDbDictionary
281
1
  3
ByBlock
350
1F
  3
ByLayer
350
20
  3
Global
350
21
  0
DICTIONARY
  5
F
330
A
100
AcDbDictionary
281
1
  3
Standard
350
2C
  0
DICTIONARY
  5
10
330
A
100
AcDbDictionary
281
1
  3
Standard
350
22
  0
DICTIONARY
  5
11
330
A
100
AcDbDictionary
281
1
  0
ACDBDICTIONARYWDFLT
  5
12
330
A
100
AcDbDictionary
281
1
  3
Normal
350
13
100
AcDbDictionaryWithDefault
340
13
  0
ACDBPLACEHOLDER
  5
13
330
12
  0
DICTIONARY
  5
14
330
A
100
AcDbDictionary
281
1
  0
DICTIONARY
  5
15
330
A
100
AcDbDictionary
281
1
  0
DICTIONARY
  5
16
330
A
100
AcDbDictionary
281
1
  3
2dWireframe
350
5A
  3
Basic
350
5B
  3
Brighten
350
5C
  3
ColorChange
350
5D
  3
Conceptual
350
5E
  3
Dim
350
5F
  3
EdgeColorOff
350
60
  3
Facepattern
350
61
  3
Flat
350
62
  3
FlatWithEdges
350
63
  3
Gouraud
350
64
  3
GouraudWithEdges
350
65
  3
Hidden
350
66
  3
JitterOff
350
67
  3
Linepattern
350
68
  3
Modeling
350
69
  3
OverhangOff
350
6A
  3
Realistic
350
6B
  3
Shaded
350
6C
  3
Shaded with edges
350
6D
  3
Shades of Gray
350
6E
  3
Sketchy
350
6F
  3
Thicken
350
70
  3
Wireframe
350
71
  3
X-Ray
350
72
  0
LAYOUT
  5
1A
330
D
100
AcDbPlotSettings
  1

  4
A3
  6

 40
7.5
 41
20.0
 42
7.5
 43
20.0
 44
420.0
 45
297.0
 46
0.0
 47
0.0
 48
0.0
 49
0.0
140
0.0
141
0.0
142
1.0
143
1.0
 70
1024
 72
1
 73
0
 74
5
  7

 75
16
 76
0
 77
2
 78
300
147
1.0
148
0.0
149
0.0
100
AcDbLayout
  1
Model
 70
1
 71
0
 10
0.0
 20
0.0
 11
420.0
 21
297.0
 12
0.0
 22
0.0
 32
0.0
 14
1e+20
 24
1e+20
 34
1e+20
 15
-1e+20
 25
-1e+20
 35
-1e+20
146
0.0
 13
0.0
 23
0.0
 33
0.0
 16
1.0
 26
0.0
 36
0.0
 17
0.0
 27
1.0
 37
0.0
 76
1
330
17
  0
LAYOUT
  5
1E
330
D
100
AcDbPlotSettings
  1

  4
A3
  6

 40
7.5
 41
20.0
 42
7.5
 43
20.0
 44
420.0
 45
297.0
 46
0.0
 47
0.0
 48
0.0
 49
0.0
140
0.0
141
0.0
142
1.0
143
1.0
 70
0
 72
1
 73
0
 74
5
  7

 75
16
 76
0
 77
2
 78
300
147
1.0
148
0.0
149
0.0
100
AcDbLayout
  1
Layout1
 70
1
 71
1
 10
0.0
 20
0.0
 11
420.0
 21
297.0
 12
0.0
 22
0.0
 32
0.0
 14
1e+20
 24
1e+20
 34
1e+20
 15
-1e+20
 25
-1e+20
 35
-1e+20
146
0.0
 13
0.0
 23
0.0
 33
0.0
 16
1.0
 26
0.0
 36
0.0
 17
0.0
 27
1.0
 37
0.0
 76
1
330
1B
  0
MATERIAL
  5
1F
102
{ACAD_REACTORS
330
E
102
}
330
E
100
AcDbMaterial
  1
ByBlock
  2

 70
0
 40
1.0
 71
1
 41
1.0
 91
-1023410177
 42
1.0
 72
1
  3

 73
1
 74
1
 75
1
 44
0.5
 73
0
 45
1.0
 46
1.0
 77
1
  4

 78
1
 79
1
170
1
 48
1.0
171
1
  6

172
1
173
1
174
1
140
1.0
141
1.0
175
1
  7

176
1
177
1
178
1
143
1.0
179
1
  8

270
1
271
1
272
1
145
1.0
146
1.0
273
1
  9

274
1
275
1
276
1
 42
1.0
 72
1
  3

 73
1
 74
1
 75
1
 94
63
  0
MATERIAL
  5
20
102
{ACAD_REACTORS
330
E
102
}
330
E
100
AcDbMaterial
  1
ByLayer
  2

 70
0
 40
1.0
 71
1
 41
1.0
 91
-1023410177
 42
1.0
 72
1
  3

 73
1
 74
1
 75
1
 44
0.5
 73
0
 45
1.0
 46
1.0
 77
1
  4

 78
1
 79
1
170
1
 48
1.0
171
1
  6

172
1
173
1
174
1
140
1.0
141
1.0
175
1
  7

176
1
177
1
178
1
143
1.0
179
1
  8

270
1
271
1
272
1
145
1.0
146
1.0
273
1
  9

274
1
275
1
276
1
 42
1.0
 72
1
  3

 73
1
 74
1
 75
1
 94
63
  0
MATERIAL
  5
21
102
{ACAD_REACTORS
330
E
102
}
330
E
100
AcDbMaterial
  1
Global
  2

 70
0
 40
1.0
 71
1
 41
1.0
 91
-1023410177
 42
1.0
 72
1
  3

 73
1
 74
1
 75
1
 44
0.5
 73
0
 45
1.0
 46
1.0
 77
1
  4

 78
1
 79
1
170
1
 48
1.0
171
1
  6

172
1
173
1
174
1
140
1.0
141
1.0
175
1
  7

176
1
177
1
178
1
143
1.0
179
1
  8

270
1
271
1
272
1
145
1.0
146
1.0
273
1
  9

274
1
275
1
276
1
 42
1.0
 72
1
  3

 73
1
 74
1
 75
1
 94
63
  0
MLINESTYLE
  5
22
102
{ACAD_REACTORS
330
10
102
}
330
10
100
AcDbMlineStyle
  2
Standard
 70
0
  3

 62
256
 51
90.0
 52
90.0
 71
2
 49
0.5
 62
256
  6
BYLAYER
 49
-0.5
 62
256
  6
BYLAYER
  0
MLEADERSTYLE
  5
2C
102
{ACAD_REACTORS
330
F
102
}
330
F
100
AcDbMLeaderStyle
179
2
170
2
171
1
172
0
 90
2
 40
0.0
 41
0.0
173
1
 91
-1056964608
 92
-2
290
1
 42
2.0
291
1
 43
8.0
  3
Standard
 44
4.0
300

342
29
174
1
175
1
176
0
178
1
 93
-1056964608
 45
4.0
292
0
297
0
 46
4.0
 94
-1056964608
 47
1.0
 49
1.0
140
1.0
294
1
141
0.0
177
0
142
1.0
295
0
296
0
143
3.75
271
0
272
9
273
9
  0
DICTIONARY
  5
2D
330
A
100
AcDbDictionary
280
1
281
1
  3
CREATED_BY_EZDXF
350
2E
  3
WRITTEN_BY_EZDXF
350
19D
  0
DICTIONARYVAR
  5
2E
330
2D
100
DictionaryVariables
280
0
  1
1.4.4 @ 2026-10-07T07:18:30.350190+00:00
  0
VISUALSTYLE
  5
5A
102
{ACAD_REACTORS
330
16
102
}
330
16
100
AcDbVisualStyle
  2
2dWireframe
 70
4
 90
0
 40
0.6
 62
7
290
0
291
0
  0
VISUALSTYLE
  5
5B
102
{ACAD_REACTORS
330
16
102
}
330
16
100
AcDbVisualStyle
  2
Basic
 70
7
 90
1
 40
0.6
 62
7
290
0
291
1
  0
VISUALSTYLE
  5
5C
102
{ACAD_REACTORS
330
16
102
}
330
16
100
AcDbVisualStyle
  2
Brighten
 70
12
 90
2
 40
0.6
 62
7
290
0
291
1
  0
VISUALSTYLE
  5
5D
102
{ACAD_REACTORS
330
16
102
}
330
16
100
AcDbVisualStyle
  2
ColorChange
 70
16
 90
2
 40
0.6
 62
8
290
0
291
1
  0
VISUALSTYLE
  5
5E
102
{ACAD_REACTORS
330
16
102
}
330
16
100
AcDbVisualStyle
  2
Conceptual
 70
9
 90
3
 40
0.6
 62
7
290
0
291
0
  0
VISUALSTYLE
  5
5F
102
{ACAD_REACTORS
330
16
102
}
330
16
100
AcDbVisualStyle
  2
Dim
 70
11
 90
2
 40
0.6
 62
7
290
0
291
1
  0
VISUALSTYLE
  5
60
102
{ACAD_REACTORS
330
16
102
}
330
16
100
AcDbVisualStyle
  2
EdgeColorOff
 70
22
 90
2
 40
0.6
 62
7
290
0
291
1
  0
VISUALSTYLE
  5
61
102
{ACAD_REACTORS
330
16
102
}
330
16
100
AcDbVisualStyle
  2
Facepattern
 70
15
 90
2
 40
0.6
 62
7
290
0
291
1
  0
VISUALSTYLE
  5
62
102
{ACAD_REACTORS
330
16
102
}
330
16
100
AcDbVisualStyle
  2
Flat
 70
0
 90
2
 40
0.6
 62
7
290
0
291
1
  0
VISUALSTYLE
  5
63
102
{ACAD_REACTORS
330
16
102
}
330
16
100
AcDbVisualStyle
  2
FlatWithEdges
 70
1
 90
2
 40
0.6
 62
7
290
0
291
1
  0
VISUALSTYLE
  5
64
102
{ACAD_REACTORS
330
16
102
}
330
16
100
AcDbVisualStyle
  2
Gouraud
 70
2
 90
2
 40
0.6
 62
7
290
0
291
1
  0
VISUALSTYLE
  5
65
102
{ACAD_REACTORS
330
16
102
}
330
16
100
AcDbVisualStyle
  2
GouraudWithEdges
 70
3
 90
2
 40
0.6
 62
7
290
0
291
1
  0
VISUALSTYLE
  5
66
102
{ACAD_REACTORS
330
16
102
}
330
16
100
AcDbVisualStyle
  2
Hidden
 70
6
 90
1
 40
0.6
 62
7
290
0
291
0
  0
VISUALSTYLE
  5
67
102
{ACAD_REACTORS
330
16
102
}
330
16
100
AcDbVisualStyle
  2
JitterOff
 70
20
 90
2
 40
0.6
 62
7
290
0
291
1
  0
VISUALSTYLE
  5
68
102
{ACAD_REACTORS
330
16
102
}
330
16
100
AcDbVisualStyle
  2
Linepattern
 70
14
 90
2
 40
0.6
 62
7
290
0
291
1
  0
VISUALSTYLE
  5
69
102
{ACAD_REACTORS
330
16
102
}
330
16
100
AcDbVisualStyle
  2
Modeling
 70
10
 90
2
 40
0.6
 62
7
290
0
291
0
  0
VISUALSTYLE
  5
6A
102
{ACAD_REACTORS
330
16
102
}
330
16
100
AcDbVisualStyle
  2
OverhangOff
 70
21
 90
2
 40
0.6
 62
7
290
0
291
1
  0
VISUALSTYLE
  5
6B
102
{ACAD_REACTORS
330
16
102
}
330
16
100
AcDbVisualStyle
  2
Realistic
 70
8
 90
2
 40
0.6
 62
7
290
0
291
0
  0
VISUALSTYLE
  5
6C
102
{ACAD_REACTORS
330
16
102
}
330
16
100
AcDbVisualStyle
  2
Shaded
 70
27
 90
2
 40
0.6
 62
7
290
0
291
0
  0
VISUALSTYLE
  5
6D
102
{ACAD_REACTORS
330
16
102
}
330
16
100
AcDbVisualStyle
  2
Shaded with edges
 70
26
 90
2
 40
0.6
 62
7
290
0
291
0
  0
VISUALSTYLE
  5
6E
102
{ACAD_REACTORS
330
16
102
}
330
16
100
AcDbVisualStyle
  2
Shades of Gray
 70
23
 90
2
 40
0.6
 62
7
290
0
291
0
  0
VISUALSTYLE
  5
6F
102
{ACAD_REACTORS
330
16
102
}
330
16
100
AcDbVisualStyle
  2
Sketchy
 70
24
 90
1
 40
0.6
 62
7
290
0
291
0
  0
VISUALSTYLE
  5
70
102
{ACAD_REACTORS
330
16
102
}
330
16
100
AcDbVisualStyle
  2
Thicken
 70
13
 90
2
 40
0.6
 62
7
290
0
291
1
  0
VISUALSTYLE
  5
71
102
{ACAD_REACTORS
330
16
102
}
330
16
100
AcDbVisualStyle
  2
Wireframe
 70
5
 90
0
 40
0.6
 62
7
290
0
291
0
  0
VISUALSTYLE
  5
72
102
{ACAD_REACTORS
330
16
102
}
330
16
100
AcDbVisualStyle
  2
X-Ray
 70
25
 90
2
 40
0.5
 62
7
290
0
291
0
  0
DICTIONARYVAR
  5
19D
330
2D
100
DictionaryVariables
280
0
  1
1.4.4 @ 2026-10-07T07:18:30.366885+00:00
  0
ENDSEC
  0
EOF
